# OpenSCAD obj exporter
v 0.0318556 0.0103502 -0.0200421
v 0.0249081 0.00809288 -0.021918
v 0.0311432 0.0123301 -0.0200421
v -0.0443325 0.0175524 -0.0149352
v -0.0504999 0.0199941 -0.011813
v -0.0504999 0.0200699 -0.0117989
v -0.0431433 0.0203009 -0.0149352
v -0.0470896 0.0389557 -0.00808973
v -0.0504999 0.0417768 -0.00528126
v -0.0504999 0.0427776 -0.00486109
v -0.0445509 0.0418358 -0.00808973
v -0.0389557 0.0470896 -0.00808973
v -0.039486 0.0526991 -0.00506972
v -0.0382879 0.0526991 -0.00553577
v -0.0359221 0.0494423 -0.00808973
v -0.0378122 0.0149708 -0.0177114
v -0.0367975 0.0173149 -0.0177114
v -0.0030508 0.00221634 -0.0247504
v -0.00870514 0.00720119 -0.0242764
v -0.00290489 0.00240326 -0.0247504
v 0.0504999 0.0200699 -0.0117989
v 0.0431433 0.0203009 -0.0149352
v 0.0493174 0.0232067 -0.0117232
v 0.0504999 0.0204742 -0.0117232
v 0.0211878 0.0153933 -0.021918
v 0.0201797 0.0166941 -0.021918
v 0.0270977 0.0196877 -0.0200421
v -0.0461826 0.011857 -0.0149352
v -0.0504999 0.0108923 -0.0130505
v -0.0504999 0.0129658 -0.0128373
v -0.00691319 0.0174618 -0.0233314
v -0.00964069 0.0243502 -0.021918
v -0.00809288 0.0249081 -0.021918
v -0.0491924 0.046195 -0.00404902
v -0.046195 0.0491924 -0.00404902
v -0.0418358 0.0445509 -0.00808973
v 0.0329018 0.00627613 -0.0200421
v 0.0253668 0.00651264 -0.021918
v 0.032443 0.00832939 -0.0200421
v -0.00823593 0.0077343 -0.0242764
v -0.0136909 0.0128565 -0.0233314
v -0.0128565 0.0136909 -0.0233314
v -0.0077343 0.00823593 -0.0242764
v 0 0.0261898 -0.021918
v -0.00210285 0.0334291 -0.0200421
v 0 0.0334949 -0.0200421
v -0.00761986 0.0399475 -0.0177114
v -0.0101137 0.0393906 -0.0177114
v -0.00893402 0.0468359 -0.0149352
v -0.0100524 0.0526991 -0.0121262
v -0.00964129 0.0526991 -0.0121565
v -0.00597572 0.0473051 -0.0149352
v -0.0430145 0.0519962 -0.00404902
v 0.00351906 0.0184479 -0.0233314
v 0.00235367 0.0186329 -0.0233314
v 0.00490665 0.0257254 -0.021918
v -0.0229702 0.0417833 -0.0149352
v -0.0292053 0.0460205 -0.0117232
v -0.0262575 0.0477629 -0.0117232
v -0.0468359 0.00893402 -0.0149352
v -0.0504999 0.00963295 -0.0131798
v -0.0385742 0.0280256 -0.0149352
v -0.044096 0.0320368 -0.0117232
v -0.0367384 0.0303926 -0.0149352
v 0.0037632 0.000236511 -0.0247504
v 0.00374126 0.000472069 -0.0247504
v 0.0112762 0.00070858 -0.0242764
v 0.0453472 0.0147343 -0.0149352
v 0.0378122 0.0149708 -0.0177114
v 0.0443325 0.0175524 -0.0149352
v 0.0257254 0.00490665 -0.021918
v 0.0393906 0.0101137 -0.0177114
v 0.0386772 0.0125666 -0.0177114
v 0.0174618 0.00691319 -0.0233314
v 0.0105047 0.00415897 -0.0242764
v 0.0169935 0.00799656 -0.0233314
v 0.0179472 0.0282803 -0.0200421
v 0.0161362 0.0293522 -0.0200421
v 0.0217905 0.034337 -0.0177114
v 0.0151939 0.0110388 -0.0233314
v 0.0144711 0.0119715 -0.0233314
v 0.0168428 0.0518379 -0.0117232
v 0.0166504 0.0526991 -0.0112979
v 0.0171227 0.0526991 -0.0112254
v 0.0187435 0.00117874 -0.0233314
v 0.0186329 0.00235367 -0.0233314
v 0.0261383 0.00164413 -0.021918
v 0.041997 0.0347424 -0.0117232
v 0.0367384 0.0303926 -0.0149352
v 0.0397329 0.0373116 -0.0117232
v -0.0280256 0.0385742 -0.0149352
v -0.0320368 0.044096 -0.0117232
v -0.025548 0.0402584 -0.0149352
v -0.00255299 0.0405874 -0.0177114
v 0 0.0406685 -0.0177114
v -0.00117874 0.0187435 -0.0233314
v -0.00164413 0.0261383 -0.021918
v 0 0.0187807 -0.0233314
v -0.00221634 0.0030508 -0.0247504
v -0.00664043 0.00914001 -0.0242764
v -0.00605392 0.0095396 -0.0242764
v -0.0229502 0.0126171 -0.021918
v -0.0293522 0.0161362 -0.0200421
v -0.0221128 0.0140333 -0.021918
v -0.0144711 0.0119715 -0.0233314
v -0.0201797 0.0166941 -0.021918
v 0.010745 0.0034914 -0.0242764
v -0.0402584 0.025548 -0.0149352
v -0.0200644 0.0506773 -0.0117232
v -0.0208647 0.0526991 -0.0105279
v -0.0178197 0.0526991 -0.0110955
v -0.0168428 0.0518379 -0.0117232
v 0.00691319 0.0174618 -0.0233314
v 0.00580311 0.0178614 -0.0233314
v 0.00809288 0.0249081 -0.021918
v 0.0417833 0.0229702 -0.0149352
v 0.034337 0.0217905 -0.0177114
v 0.0402584 0.025548 -0.0149352
v 0.0258083 0.0213499 -0.0200421
v 0.0158567 0.0100632 -0.0233314
v 0.0221128 0.0140333 -0.021918
v -0.00627613 0.0329018 -0.0200421
v 0.0303926 0.0367384 -0.0149352
v 0.0280256 0.0385742 -0.0149352
v 0.0320368 0.044096 -0.0117232
v 0.0504999 0 -0.0136084
v 0.0476809 0 -0.0149352
v 0.0504999 0.00143615 -0.0135871
v 0.0405874 0.00255299 -0.0177114
v 0.0403471 0.00509644 -0.0177114
v 0.0473051 0.00597572 -0.0149352
v 0.0475864 0.00299358 -0.0149352
v -0.000937462 0.00365257 -0.0247504
v -0.0034914 0.010745 -0.0242764
v -0.00280952 0.0109434 -0.0242764
v -0.0232067 0.0493174 -0.0117232
v -0.0203009 0.0431433 -0.0149352
v -0.0329008 0.0239038 -0.0177114
v -0.0313349 0.0259228 -0.0177114
v -0.0356379 0.0195913 -0.0177114
v -0.0417833 0.0229702 -0.0149352
v -0.00274849 0.00258064 -0.0247504
v -0.00490665 0.0257254 -0.021918
v -0.00328159 0.0259829 -0.021918
v 0.00377083 0 -0.0247504
v 0.00990009 0.00544262 -0.0242764
v 0.00330448 0.00181675 -0.0247504
v 0.0095396 0.00605392 -0.0242764
v -0.00351906 0.0184479 -0.0233314
v -0.00235367 0.0186329 -0.0233314
v -0.00544262 0.00990009 -0.0242764
v -0.00904751 0.0164576 -0.0233314
v -0.00799656 0.0169935 -0.0233314
v -0.0270977 0.0196877 -0.0200421
v -0.0258083 0.0213499 -0.0200421
v -0.0244169 0.0229292 -0.0200421
v -0.034337 0.0217905 -0.0177114
v -0.0453472 0.0147343 -0.0149352
v -0.0373116 0.0397329 -0.0117232
v -0.0494423 0.0359221 -0.00808973
v -0.0504999 0.0366904 -0.00726035
v -0.0504999 0.0392781 -0.0062537
v -0.0421087 0.0526991 -0.00404902
v 0.0406685 0 -0.0177114
v 0.0356379 0.0195913 -0.0177114
v 0.0504999 0.00637941 -0.0134195
v 0.0504999 0.00814681 -0.0132894
v 0.0504999 0.0343658 -0.00808973
v 0.0494423 0.0359221 -0.00808973
v 0.0504999 0.0366904 -0.00726035
v 0.0296459 0.0278387 -0.0177114
v 0.0278387 0.0296459 -0.0177114
v 0.0326395 0.0347576 -0.0149352
v 0.0347576 0.0326395 -0.0149352
v 0.0367975 0.0173149 -0.0177114
v 0.0329008 0.0239038 -0.0177114
v 0.0461826 0.011857 -0.0149352
v 0.0504999 0.0164082 -0.0123854
v 0.0504999 0.0156632 -0.0124832
v 0.044096 0.0320368 -0.0117232
v 0.0259829 0.00328159 -0.021918
v 0.0332308 0.00419807 -0.0200421
v 0.0100632 0.0158567 -0.0233314
v 0.00904751 0.0164576 -0.0233314
v 0.0140333 0.0221128 -0.021918
v 0.00761986 0.0399475 -0.0177114
v 0.00509644 0.0403471 -0.0177114
v 0.00597572 0.0473051 -0.0149352
v 0.0373116 0.0397329 -0.0117232
v -0.00240326 0.00290489 -0.0247504
v -0.00720119 0.00870514 -0.0242764
v -0.0142612 0.0303068 -0.0200421
v -0.0173149 0.0367975 -0.0177114
v -0.0123301 0.0311432 -0.0200421
v 0.0178197 0.0526991 -0.0110955
v -0.0303926 0.0367384 -0.0149352
v -0.0347424 0.041997 -0.0117232
v -0.0175524 0.0443325 -0.0149352
v -0.011857 0.0461826 -0.0149352
v -0.0135306 0.0526991 -0.0117686
v -0.0104009 0.0526991 -0.0120904
v 0.0110388 0.0151939 -0.0233314
v 0.00605392 0.0095396 -0.0242764
v -0.00341129 0.00160503 -0.0247504
v -0.0102224 0.00481033 -0.0242764
v -0.00330448 0.00181675 -0.0247504
v -0.0095396 0.00605392 -0.0242764
v -0.00914001 0.00664043 -0.0242764
v 0.00799656 0.0169935 -0.0233314
v 0.00415897 0.0105047 -0.0242764
v -0.0259829 0.00328159 -0.021918
v -0.0332308 0.00419807 -0.0200421
v -0.0329018 0.00627613 -0.0200421
v -0.0399475 0.00761986 -0.0177114
v -0.0393906 0.0101137 -0.0177114
v -0.0257254 0.00490665 -0.021918
v -0.0253668 0.00651264 -0.021918
v -0.0112085 0.00141525 -0.0242764
v -0.0186329 0.00235367 -0.0233314
v -0.0110979 0.0021162 -0.0242764
v -0.0013876 0.00350571 -0.0247504
v -0.00415897 0.0105047 -0.0242764
v -0.00419807 0.0332308 -0.0200421
v -0.00509644 0.0403471 -0.0177114
v -0.0460205 0.0292053 -0.0117232
v -0.0504999 0.0320479 -0.00880637
v -0.0504999 0.0343658 -0.00808973
v -0.0504999 0.0164082 -0.0123854
v -0.0504999 0.0169693 -0.0122958
v -0.0435961 0.0526991 -0.00338622
v -0.0149708 0.0378122 -0.0177114
v -0.0493174 0.0232067 -0.0117232
v -0.0504999 0.0204742 -0.0117232
v -0.0504999 0.0237632 -0.0110048
v -0.0334291 0.00210285 -0.0200421
v -0.0403471 0.00509644 -0.0177114
v 0.0504999 0.0169693 -0.0122958
v 0.0504999 0.0199941 -0.011813
v 0.0334291 0.00210285 -0.0200421
v 0.0313349 0.0259228 -0.0177114
v 0.0460205 0.0292053 -0.0117232
v 0.00627613 0.0329018 -0.0200421
v 0.00328159 0.0259829 -0.021918
v 0.00419807 0.0332308 -0.0200421
v 0.0200644 0.0506773 -0.0117232
v 0.0208647 0.0526991 -0.0105279
v 0.0477629 0.0262575 -0.0117232
v 0.0179281 0.0190916 -0.021918
v 0.0128565 0.0136909 -0.0233314
v 0.0166941 0.0201797 -0.021918
v 0.0149708 0.0378122 -0.0177114
v 0.0125666 0.0386772 -0.0177114
v 0.0147343 0.0453472 -0.0149352
v 0.0352847 0.0526991 -0.00660728
v 0.0327463 0.0516005 -0.00808973
v 0.0334435 0.0526991 -0.0072641
v 0.0399475 0.00761986 -0.0177114
v 0.0468359 0.00893402 -0.0149352
v 0.0293522 0.0161362 -0.0200421
v 0.0229502 0.0126171 -0.021918
v 0.0178614 0.00580311 -0.0233314
v 0.0110979 0.0021162 -0.0242764
v 0.0109434 0.00280952 -0.0242764
v 0.0184479 0.00351906 -0.0233314
v 0.00964069 0.0243502 -0.021918
v 0.0136909 0.0128565 -0.0233314
v 0.0190916 0.0179281 -0.021918
v 0.0282803 0.0179472 -0.0200421
v 0.0164576 0.00904751 -0.0233314
v 0.0034914 0.010745 -0.0242764
v 0.0244169 0.0229292 -0.0200421
v 0.0229292 0.0244169 -0.0200421
v 0.0259228 0.0313349 -0.0177114
v 0.0196877 0.0270977 -0.0200421
v 0.0239038 0.0329008 -0.0177114
v 0.0504999 0.0463186 -0.00327665
v 0.0491924 0.046195 -0.00404902
v 0.0504999 0.0474229 -0.00274573
v 0.046195 0.0491924 -0.00404902
v 0.0494882 0.0526991 -0.000553633
v 0.0504999 0.0526991 -3.35487e-05
v 0.0347424 0.041997 -0.0117232
v 0.0430145 0.0519962 -0.00404902
v 0.0421087 0.0526991 -0.00404902
v 0.0435961 0.0526991 -0.00338622
v 0.0465265 0.0526991 -0.00197755
v 0.0181913 0.00467014 -0.0233314
v -0.00990009 0.00544262 -0.0242764
v -0.0169935 0.00799656 -0.0233314
v -0.0164576 0.00904751 -0.0233314
v -0.0021162 0.0110979 -0.0242764
v -0.00665728 0.0526991 -0.0123761
v -0.0171227 0.0526991 -0.0112254
v -0.0166504 0.0526991 -0.0112979
v -0.00299358 0.0475864 -0.0149352
v -0.0040334 0.0526991 -0.0124924
v -0.003315 0.0526991 -0.0125242
v 0.0292053 0.0460205 -0.0117232
v 0.0262575 0.0477629 -0.0117232
v 0.0289711 0.0526991 -0.00862692
v 0.029415 0.0526991 -0.0085027
v -0.0126171 0.0229502 -0.021918
v -0.0111504 0.0236969 -0.021918
v -0.0161362 0.0293522 -0.0200421
v -0.0217905 0.034337 -0.0177114
v -0.0195913 0.0356379 -0.0177114
v -0.0179472 0.0282803 -0.0200421
v -0.0100632 0.0158567 -0.0233314
v -0.0140333 0.0221128 -0.021918
v -0.0249081 0.00809288 -0.021918
v -0.0318556 0.0103502 -0.0200421
v -0.0311432 0.0123301 -0.0200421
v -0.0147343 0.0453472 -0.0149352
v 0.00164413 0.0261383 -0.021918
v 0.00370407 0.000705719 -0.0247504
v 0.00350571 0.0013876 -0.0247504
v 0.00341129 0.00160503 -0.0247504
v 0.0102224 0.00481033 -0.0242764
v -0.0261898 0 -0.021918
v -0.0261383 0.00164413 -0.021918
v -0.0112762 0.00070858 -0.0242764
v -0.0187807 0 -0.0233314
v -0.0187435 0.00117874 -0.0233314
v -0.0476809 0 -0.0149352
v -0.0504999 0 -0.0136084
v -0.0504999 0.00143615 -0.0135871
v -0.0406685 0 -0.0177114
v -0.0405874 0.00255299 -0.0177114
v -0.00370407 0.000705719 -0.0247504
v -0.00365257 0.000937462 -0.0247504
v -0.032443 0.00832939 -0.0200421
v -0.0504999 0.0156632 -0.0124832
v -0.0166941 0.0201797 -0.021918
v -0.0119715 0.0144711 -0.0233314
v 0.00181675 0.00330448 -0.0247504
v 0.00544262 0.00990009 -0.0242764
v 0.00481033 0.0102224 -0.0242764
v 0.0013876 0.00350571 -0.0247504
v -0.00467014 0.0181913 -0.0233314
v -0.000705719 0.00370407 -0.0247504
v -0.000472069 0.00374126 -0.0247504
v -0.0397329 0.0373116 -0.0117232
v -0.0473051 0.00597572 -0.0149352
v -0.0504999 0.0048253 -0.0134884
v -0.0504999 0.00637941 -0.0134195
v -0.0504999 0.0293459 -0.00956318
v -0.0504999 0.0249465 -0.0107094
v -0.0504999 0.0474229 -0.00274573
v -0.0504999 0.0526991 -3.35487e-05
v -0.0494882 0.0526991 -0.000553633
v -0.0504999 0.0447119 -0.00404902
v -0.0504999 0.0463186 -0.00327665
v -0.0352847 0.0526991 -0.00660728
v -0.0327463 0.0516005 -0.00808973
v -0.0334435 0.0526991 -0.0072641
v -0.0308894 0.0526991 -0.00808973
v -0.029415 0.0526991 -0.0085027
v -0.0289711 0.0526991 -0.00862692
v 0.0334949 0 -0.0200421
v 0.0261898 0 -0.021918
v 0.0504999 0.0427776 -0.00486109
v 0.0445509 0.0418358 -0.00808973
v 0.0504999 0.0447119 -0.00404902
v 0.0470896 0.0389557 -0.00808973
v 0 0.0476809 -0.0149352
v -0.0025565 0.0526991 -0.0125355
v 0 0.0526991 -0.0125734
v 0.00467014 0.0181913 -0.0233314
v 0.00651264 0.0253668 -0.021918
v 0.0418358 0.0445509 -0.00808973
v 0.0504999 0.0293459 -0.00956318
v 0.0504999 0.0320479 -0.00880637
v 0.00832939 0.032443 -0.0200421
v 0.0103502 0.0318556 -0.0200421
v 0.0101137 0.0393906 -0.0177114
v 0.0213499 0.0258083 -0.0200421
v 0.0153933 0.0211878 -0.021918
v 0.0385742 0.0280256 -0.0149352
v 0.0504999 0.00963295 -0.0131798
v 0.0303068 0.0142612 -0.0200421
v 0.0112085 0.00141525 -0.0242764
v 0.0112982 0 -0.0242764
v 0.0187807 0 -0.0233314
v 0.0119715 0.0144711 -0.0233314
v 0.00664043 0.00914001 -0.0242764
v 0.00823593 0.0077343 -0.0242764
v 0.0077343 0.00823593 -0.0242764
v 0.00914001 0.00664043 -0.0242764
v 0.0142612 0.0303068 -0.0200421
v 0.0111504 0.0236969 -0.021918
v 0.0123301 0.0311432 -0.0200421
v 0.00720119 0.00870514 -0.0242764
v 0.0126171 0.0229502 -0.021918
v 0.0504999 0.0392781 -0.0062537
v 0.0504999 0.0417768 -0.00528126
v 0.025548 0.0402584 -0.0149352
v 0.00365257 0.000937462 -0.0247504
v 0.00358582 0.00116444 -0.0247504
v -0.00350571 0.0013876 -0.0247504
v -0.010745 0.0034914 -0.0242764
v -0.0105047 0.00415897 -0.0242764
v -0.00181675 0.00330448 -0.0247504
v -0.00481033 0.0102224 -0.0242764
v -0.00160503 0.00341129 -0.0247504
v -0.0196877 0.0270977 -0.0200421
v -0.00832939 0.032443 -0.0200421
v 0.0025565 0.0526991 -0.0125355
v 0.0229702 0.0417833 -0.0149352
v 0.0040334 0.0526991 -0.0124924
v 0.00665728 0.0526991 -0.0123761
v -0.0239038 0.0329008 -0.0177114
v -0.0103502 0.0318556 -0.0200421
v -0.0125666 0.0386772 -0.0177114
v -0.041997 0.0347424 -0.0117232
v -0.0296459 0.0278387 -0.0177114
v -0.0347576 0.0326395 -0.0149352
v -0.0326395 0.0347576 -0.0149352
v -0.0278387 0.0296459 -0.0177114
v -0.0158567 0.0100632 -0.0233314
v -0.0151939 0.0110388 -0.0233314
v -0.0181913 0.00467014 -0.0233314
v -0.0178614 0.00580311 -0.0233314
v -0.0138765 0.0526991 -0.0117232
v -0.0281819 0.0526991 -0.00882396
v 0.00318336 0.00201988 -0.0247504
v -0.00141525 0.0112085 -0.0242764
v -0.00116444 0.00358582 -0.0247504
v -0.00070858 0.0112762 -0.0242764
v -0.000236511 0.0037632 -0.0247504
v -0.0386772 0.0125666 -0.0177114
v -0.0504999 0.0277621 -0.0100064
v -0.0477629 0.0262575 -0.0117232
v -0.0109434 0.00280952 -0.0242764
v -0.00258064 0.00274849 -0.0247504
v -0.00358582 0.00116444 -0.0247504
v 0.0504999 0.00317675 -0.0135613
v 0.0504999 0.0048253 -0.0134884
v 0.0504999 0.0237632 -0.0110048
v 0.0504999 0.0249465 -0.0107094
v 0.00210285 0.0334291 -0.0200421
v 0.0308894 0.0526991 -0.00808973
v 0.0226708 0.0526991 -0.0101333
v 0.0195913 0.0356379 -0.0177114
v 0.0173149 0.0367975 -0.0177114
v 0.0203009 0.0431433 -0.0149352
v 0.0389557 0.0470896 -0.00808973
v 0.0243502 0.00964069 -0.021918
v -0.00318336 0.00201988 -0.0247504
v 0 0.0112982 -0.0242764
v 0.039486 0.0526991 -0.00506972
v 0.011857 0.0461826 -0.0149352
v 0.00255299 0.0405874 -0.0177114
v -0.00651264 0.0253668 -0.021918
v 0.00964129 0.0526991 -0.0121565
v -0.0229292 0.0244169 -0.0200421
v -0.0259228 0.0313349 -0.0177114
v -0.0213499 0.0258083 -0.0200421
v -0.0153933 0.0211878 -0.021918
v -0.0110388 0.0151939 -0.0233314
v -0.0211878 0.0153933 -0.021918
v -0.0226708 0.0526991 -0.0101333
v 0 0.00377083 -0.0247504
v 0.0021162 0.0110979 -0.0242764
v 0.00141525 0.0112085 -0.0242764
v -0.0475864 0.00299358 -0.0149352
v -0.0504999 0.00317675 -0.0135613
v -0.0334949 0 -0.0200421
v -0.0282803 0.0179472 -0.0200421
v 0.000472069 0.00374126 -0.0247504
v -0.00201988 0.00318336 -0.0247504
v 0.00070858 0.0112762 -0.0242764
v 0.00117874 0.0187435 -0.0233314
v -0.0465265 0.0526991 -0.00197755
v 0.0504999 0.0108923 -0.0130505
v 0.0504999 0.0129658 -0.0128373
v 0.0504999 0.0277621 -0.0100064
v 0.0232067 0.0493174 -0.0117232
v 0.0236969 0.0111504 -0.021918
v 0.00221634 0.0030508 -0.0247504
v 0.00274849 0.00258064 -0.0247504
v 0.00258064 0.00274849 -0.0247504
v 0.00160503 0.00341129 -0.0247504
v 0.00116444 0.00358582 -0.0247504
v 0.000937462 0.00365257 -0.0247504
v 0.00280952 0.0109434 -0.0242764
v 0.00240326 0.00290489 -0.0247504
v 0.00299358 0.0475864 -0.0149352
v 0.003315 0.0526991 -0.0125242
v 0.0281819 0.0526991 -0.00882396
v 0.0175524 0.0443325 -0.0149352
v -0.00580311 0.0178614 -0.0233314
v -0.0179281 0.0190916 -0.021918
v -0.0190916 0.0179281 -0.021918
v -0.0303068 0.0142612 -0.0200421
v -0.0243502 0.00964069 -0.021918
v -0.0247981 0.0526991 -0.00966863
v 0.0030508 0.00221634 -0.0247504
v 0.00201988 0.00318336 -0.0247504
v 0.000705719 0.00370407 -0.0247504
v -0.0504999 0.00814681 -0.0132894
v -0.0184479 0.00351906 -0.0233314
v -0.0174618 0.00691319 -0.0233314
v -0.00374126 0.000472069 -0.0247504
v 0.000236511 0.0037632 -0.0247504
v 0.0359221 0.0494423 -0.00808973
v 0.0382879 0.0526991 -0.00553577
v 0.00870514 0.00720119 -0.0242764
v 0.00290489 0.00240326 -0.0247504
v 0.0138765 0.0526991 -0.0117232
v -0.00377083 0 -0.0247504
v -0.0037632 0.000236511 -0.0247504
v -0.0236969 0.0111504 -0.021918
v 0.00893402 0.0468359 -0.0149352
v 0.0100524 0.0526991 -0.0121262
v 0.0104009 0.0526991 -0.0120904
v 0.0135306 0.0526991 -0.0117686
v -0.0112982 0 -0.0242764
v 0.0247981 0.0526991 -0.00966863
v 0.0504999 0 2.85915e-07
v 0.0504999 0.0526991 2.85915e-07
v -0.0504999 0.0526991 2.85915e-07
v -0.0504999 0 2.85915e-07
f  1 2 3
f  6 4 5
f  4 6 7
f  9 11 8
f  11 9 10
f  12 14 15
f  14 12 13
f  16 7 17
f  18 19 20
f  22 24 21
f  24 22 23
f  25 26 27
f  28 29 30
f  31 32 33
f  11 35 36
f  35 11 34
f  37 38 39
f  40 42 43
f  42 40 41
f  44 45 46
f  47 48 49
f  49 51 52
f  51 49 50
f  36 35 53
f  54 55 56
f  57 58 59
f  29 60 61
f  60 29 28
f  62 63 64
f  65 66 67
f  68 69 70
f  71 38 37
f  72 1 73
f  74 75 76
f  77 78 79
f  80 81 26
f  82 83 84
f  85 86 87
f  88 89 90
f  91 92 93
f  45 94 95
f  96 97 98
f  99 100 101
f  102 103 104
f  105 106 41
f  107 75 74
f  108 63 62
f  109 111 112
f  111 109 110
f  113 114 115
f  73 1 69
f  116 117 118
f  39 2 1
f  27 26 119
f  120 80 121
f  122 48 47
f  123 124 125
f  126 127 128
f  129 130 131
f  132 129 131
f  133 134 135
f  57 136 137
f  138 64 139
f  140 7 141
f  20 40 142
f  143 122 144
f  145 65 67
f  146 147 148
f  149 143 150
f  151 152 153
f  154 139 155
f  155 139 156
f  157 108 138
f  16 158 4
f  159 36 12
f  161 8 160
f  8 161 162
f  53 13 12
f  13 53 163
f  127 164 132
f  165 117 116
f  166 131 167
f  168 169 170
f  171 173 174
f  173 171 172
f  69 175 22
f  117 176 118
f  68 179 177
f  179 68 178
f  37 39 72
f  1 3 69
f  180 89 88
f  87 181 182
f  183 184 185
f  186 187 188
f  174 189 90
f  189 174 173
f  190 43 191
f  192 193 194
f  195 82 84
f  196 159 197
f  138 62 64
f  106 155 156
f  198 109 112
f  199 200 201
f  202 203 183
f  204 205 206
f  18 207 208
f  209 210 113
f  211 212 213
f  213 214 215
f  216 213 217
f  218 219 220
f  221 222 134
f  96 150 97
f  223 122 224
f  226 160 225
f  160 226 227
f  196 197 92
f  229 158 228
f  158 229 4
f  4 229 5
f  53 230 163
f  36 53 12
f  231 137 198
f  197 12 92
f  232 233 234
f  235 236 212
f  237 70 238
f  164 239 129
f  129 239 130
f  240 171 89
f  241 118 180
f  242 243 244
f  245 195 246
f  195 245 82
f  247 116 241
f  248 249 250
f  251 252 253
f  89 171 174
f  254 255 256
f  72 73 68
f  257 72 258
f  175 259 165
f  73 69 68
f  260 121 259
f  261 74 2
f  262 263 264
f  39 1 72
f  257 37 72
f  265 113 115
f  266 248 267
f  248 266 249
f  259 121 268
f  260 269 121
f  113 270 114
f  271 172 171
f  172 271 272
f  273 274 275
f  276 277 278
f  278 280 281
f  279 278 277
f  278 279 280
f  282 123 125
f  283 284 285
f  280 279 286
f  263 107 287
f  288 289 290
f  135 149 291
f  52 51 292
f  112 293 294
f  295 296 297
f  296 295 52
f  298 300 301
f  300 298 299
f  302 192 303
f  93 58 57
f  304 305 306
f  305 93 57
f  307 305 304
f  308 309 152
f  153 302 303
f  289 102 290
f  310 311 312
f  48 313 199
f  47 49 52
f  305 57 306
f  314 98 44
f  66 315 262
f  99 191 100
f  316 317 318
f  319 235 320
f  321 322 323
f  75 316 318
f  324 325 326
f  235 327 328
f  329 220 330
f  217 213 331
f  215 60 28
f  332 158 28
f  158 332 228
f  138 108 62
f  42 333 334
f  320 212 211
f  203 335 336
f  337 338 210
f  191 334 100
f  43 334 191
f  134 339 135
f  340 291 341
f  98 97 44
f  342 36 159
f  36 342 11
f  342 8 11
f  160 227 161
f  63 160 8
f  343 344 345
f  225 346 226
f  232 234 347
f  348 35 34
f  35 348 350
f  350 348 349
f  34 351 352
f  8 162 9
f  92 12 15
f  159 12 197
f  10 34 11
f  34 10 351
f  34 352 348
f  15 353 354
f  353 15 14
f  354 355 356
f  58 358 59
f  358 58 357
f  164 129 132
f  359 360 239
f  359 239 164
f  70 21 238
f  21 70 22
f  361 277 363
f  277 361 362
f  165 259 117
f  176 240 89
f  363 277 276
f  180 88 364
f  365 366 367
f  115 368 369
f  279 370 283
f  371 241 372
f  115 369 373
f  369 242 373
f  274 185 77
f  374 373 375
f  272 376 273
f  250 377 274
f  378 176 89
f  378 89 180
f  68 237 178
f  237 68 70
f  258 167 131
f  167 258 379
f  87 86 181
f  380 260 259
f  175 165 22
f  69 3 175
f  85 67 86
f  86 262 264
f  38 2 39
f  67 381 86
f  382 67 383
f  182 37 130
f  239 182 130
f  119 26 271
f  384 385 202
f  273 275 123
f  189 123 282
f  386 249 266
f  249 386 387
f  80 388 81
f  389 390 391
f  392 385 384
f  390 209 265
f  390 265 391
f  393 390 389
f  394 364 395
f  362 395 364
f  395 362 361
f  173 123 189
f  124 275 396
f  279 285 286
f  285 279 283
f  381 262 86
f  397 398 107
f  399 400 401
f  402 403 404
f  95 295 365
f  295 366 365
f  366 295 297
f  52 292 296
f  405 305 307
f  406 48 122
f  407 365 367
f  396 408 298
f  188 409 410
f  137 136 109
f  411 93 305
f  412 413 48
f  303 192 194
f  63 8 414
f  415 417 418
f  417 415 416
f  207 419 420
f  219 320 211
f  19 105 40
f  304 306 193
f  217 331 310
f  312 16 17
f  400 421 422
f  48 199 49
f  49 201 50
f  201 49 199
f  423 112 294
f  112 111 293
f  313 198 112
f  57 59 136
f  59 424 136
f  424 59 358
f  147 425 148
f  263 397 107
f  262 397 263
f  341 291 426
f  427 134 133
f  341 428 429
f  399 205 204
f  328 343 236
f  43 42 334
f  215 28 158
f  311 215 430
f  347 432 232
f  432 347 431
f  7 232 141
f  141 225 108
f  141 432 225
f  154 138 139
f  415 64 416
f  320 235 212
f  420 106 105
f  206 288 207
f  18 208 19
f  330 433 400
f  433 421 400
f  190 191 99
f  142 43 434
f  43 142 40
f  152 309 302
f  402 151 403
f  135 339 149
f  403 153 222
f  150 144 97
f  291 149 150
f  435 400 399
f  114 368 115
f  114 270 368
f  414 8 342
f  64 63 414
f  431 225 432
f  225 431 346
f  28 30 332
f  141 232 432
f  233 7 6
f  7 233 232
f  405 411 305
f  196 92 91
f  354 353 355
f  93 92 58
f  92 15 58
f  132 128 127
f  128 132 436
f  132 437 436
f  437 132 131
f  70 69 22
f  438 23 439
f  116 118 241
f  23 116 247
f  176 27 240
f  27 119 240
f  259 268 117
f  117 27 176
f  24 23 438
f  372 169 168
f  169 372 241
f  241 180 169
f  244 314 440
f  242 187 186
f  242 244 187
f  56 243 242
f  298 408 299
f  251 374 252
f  255 441 256
f  442 245 246
f  265 115 391
f  391 374 251
f  377 185 274
f  443 444 445
f  172 272 273
f  189 282 446
f  89 174 90
f  88 90 364
f  364 90 362
f  118 378 180
f  118 176 378
f  131 257 258
f  177 72 68
f  380 259 175
f  3 380 175
f  2 447 3
f  2 74 447
f  287 261 2
f  38 287 2
f  130 257 131
f  130 37 257
f  383 85 87
f  182 181 37
f  74 76 447
f  121 25 27
f  26 267 271
f  377 202 185
f  184 209 393
f  206 207 448
f  76 146 269
f  26 266 267
f  76 269 260
f  318 146 76
f  449 428 98
f  210 270 113
f  184 336 209
f  362 279 277
f  279 362 370
f  173 172 123
f  172 273 123
f  370 446 283
f  283 450 284
f  450 283 446
f  448 207 18
f  253 375 451
f  187 440 452
f  224 52 94
f  46 45 95
f  150 143 144
f  339 453 143
f  193 137 231
f  231 198 313
f  454 188 410
f  413 313 48
f  33 412 406
f  417 159 196
f  418 417 196
f  455 456 457
f  455 418 456
f  333 405 458
f  100 459 101
f  156 418 455
f  418 156 415
f  405 456 411
f  104 154 460
f  106 154 155
f  103 17 140
f  103 140 157
f  331 215 311
f  310 331 311
f  109 461 110
f  199 423 200
f  423 199 112
f  313 112 199
f  198 137 109
f  413 231 313
f  148 388 80
f  249 384 250
f  381 66 262
f  67 66 381
f  107 316 75
f  429 428 462
f  315 397 262
f  463 464 55
f  330 400 435
f  344 465 466
f  465 344 343
f  235 328 236
f  467 327 235
f  421 217 310
f  330 220 433
f  212 236 213
f  214 60 215
f  225 160 63
f  108 225 63
f  156 139 415
f  139 64 415
f  468 157 154
f  157 141 108
f  64 414 342
f  64 342 416
f  205 289 288
f  206 205 288
f  221 134 427
f  133 135 291
f  151 153 403
f  207 420 208
f  20 19 40
f  288 290 207
f  207 290 419
f  463 469 464
f  458 405 309
f  459 309 308
f  153 303 32
f  339 33 453
f  462 428 449
f  398 316 107
f  341 426 428
f  99 101 470
f  471 98 472
f  471 462 449
f  17 7 140
f  16 4 7
f  35 230 53
f  230 35 473
f  35 350 473
f  58 356 357
f  356 58 354
f  58 15 354
f  474 177 475
f  22 165 116
f  22 116 23
f  247 371 476
f  371 247 241
f  247 439 23
f  439 247 476
f  268 121 27
f  268 27 117
f  97 45 44
f  440 46 95
f  375 242 186
f  373 242 375
f  369 56 242
f  369 368 56
f  408 445 477
f  125 396 298
f  391 115 374
f  374 115 373
f  389 391 444
f  444 391 251
f  396 79 408
f  275 79 396
f  267 272 271
f  272 267 248
f  78 393 389
f  364 170 169
f  170 364 394
f  169 180 364
f  478 260 380
f  3 478 380
f  264 263 287
f  86 264 71
f  287 107 261
f  261 107 74
f  382 145 67
f  239 87 182
f  383 67 85
f  181 86 71
f  181 71 37
f  121 80 25
f  25 80 26
f  240 271 171
f  119 271 240
f  250 202 377
f  376 250 274
f  392 479 385
f  202 183 185
f  393 209 390
f  376 274 273
f  480 387 386
f  387 480 481
f  81 266 26
f  318 147 146
f  335 482 337
f  483 484 270
f  368 485 54
f  270 485 368
f  434 43 190
f  209 113 265
f  210 338 270
f  338 483 270
f  270 484 485
f  370 189 446
f  90 370 362
f  370 90 189
f  124 396 125
f  123 275 124
f  481 486 387
f  487 407 488
f  407 487 365
f  487 409 188
f  409 487 488
f  299 489 300
f  489 299 477
f  490 253 82
f  244 440 187
f  452 95 487
f  94 52 295
f  94 295 95
f  223 224 45
f  491 33 339
f  153 32 31
f  453 406 122
f  152 302 153
f  304 193 192
f  406 412 48
f  194 193 231
f  416 159 417
f  159 416 342
f  306 57 137
f  306 137 193
f  309 307 304
f  309 405 307
f  411 196 91
f  411 91 93
f  309 304 302
f  302 304 192
f  492 455 333
f  333 455 457
f  106 156 493
f  493 455 492
f  455 493 156
f  140 141 157
f  312 17 494
f  310 312 495
f  494 17 103
f  215 158 430
f  311 16 312
f  136 461 109
f  461 136 496
f  136 424 496
f  120 148 80
f  146 148 269
f  81 386 266
f  148 497 388
f  384 202 250
f  479 498 203
f  482 338 337
f  499 469 463
f  470 101 402
f  343 345 500
f  500 60 343
f  60 500 61
f  327 465 328
f  328 465 343
f  326 465 324
f  465 326 466
f  327 324 465
f  433 501 421
f  322 319 320
f  214 343 60
f  213 215 331
f  430 158 16
f  311 430 16
f  420 104 460
f  400 422 502
f  290 102 104
f  503 220 329
f  219 216 501
f  220 501 433
f  469 504 471
f  485 484 463
f  504 462 471
f  402 101 151
f  101 152 151
f  100 334 459
f  334 333 459
f  221 403 222
f  134 31 491
f  387 486 392
f  317 147 318
f  133 291 340
f  404 403 221
f  56 55 243
f  368 54 56
f  426 150 428
f  291 150 426
f  243 314 244
f  55 314 243
f  475 177 179
f  446 506 450
f  506 446 505
f  75 318 76
f  447 478 3
f  478 76 260
f  447 76 478
f  264 287 71
f  71 287 38
f  360 87 239
f  360 383 87
f  248 250 272
f  272 250 376
f  249 387 384
f  387 392 384
f  443 78 444
f  275 274 79
f  385 203 202
f  385 479 203
f  78 389 444
f  185 184 393
f  498 335 203
f  507 386 81
f  508 480 386
f  471 449 98
f  55 471 472
f  337 210 209
f  336 337 209
f  446 125 505
f  282 125 446
f  486 479 392
f  440 95 452
f  487 95 365
f  82 509 83
f  253 451 82
f  97 223 45
f  45 224 94
f  224 47 52
f  122 47 224
f  339 143 149
f  143 453 122
f  134 491 339
f  31 33 491
f  412 231 413
f  33 406 453
f  418 196 456
f  456 196 411
f  459 458 309
f  459 333 458
f  457 456 405
f  333 457 405
f  40 105 41
f  41 106 493
f  154 157 138
f  103 157 468
f  269 120 121
f  269 148 120
f  484 499 463
f  425 497 148
f  145 66 65
f  145 315 66
f  145 397 315
f  145 398 397
f  145 316 398
f  145 317 316
f  145 147 317
f  145 425 147
f  145 497 425
f  145 508 497
f  145 480 508
f  145 481 480
f  145 486 481
f  145 479 486
f  145 498 479
f  145 335 498
f  145 482 335
f  145 338 482
f  145 483 338
f  145 484 483
f  145 499 484
f  145 469 499
f  145 504 469
f  145 462 504
f  145 429 462
f  145 341 429
f  145 340 341
f  145 133 340
f  145 427 133
f  145 221 427
f  145 404 221
f  145 402 404
f  145 470 402
f  145 99 470
f  145 190 99
f  145 434 190
f  145 142 434
f  145 20 142
f  145 18 20
f  145 448 18
f  145 206 448
f  145 204 206
f  145 399 204
f  145 435 399
f  145 330 435
f  145 329 330
f  145 503 329
f  145 511 503
f  511 145 510
f  319 467 235
f  421 216 217
f  501 216 421
f  213 236 214
f  236 343 214
f  290 104 419
f  419 104 420
f  460 154 106
f  420 460 106
f  512 312 494
f  102 494 103
f  401 502 289
f  400 502 401
f  323 320 219
f  511 321 503
f  101 308 152
f  101 459 308
f  222 153 31
f  222 31 134
f  485 463 54
f  54 463 55
f  428 96 98
f  428 150 96
f  440 44 46
f  314 44 440
f  437 131 166
f  258 72 177
f  258 474 379
f  474 258 177
f  125 298 505
f  505 254 506
f  254 505 255
f  79 78 443
f  274 77 79
f  203 336 184
f  183 203 184
f  388 507 81
f  388 497 507
f  464 469 471
f  464 471 55
f  472 98 314
f  55 472 314
f  336 335 337
f  188 452 487
f  187 452 188
f  445 245 477
f  513 515 451
f  515 513 514
f  444 251 445
f  445 490 245
f  374 375 252
f  252 375 253
f  375 513 451
f  375 186 513
f  144 223 97
f  144 122 223
f  303 194 32
f  32 194 33
f  33 194 412
f  194 231 412
f  41 492 42
f  492 41 493
f  42 492 333
f  208 105 19
f  208 420 105
f  104 468 154
f  104 103 468
f  219 211 216
f  211 213 216
f  512 494 102
f  289 512 102
f  399 401 205
f  401 289 205
f  502 495 289
f  502 310 495
f  321 323 219
f  220 219 501
f  503 218 220
f  322 320 323
f  505 298 255
f  255 301 441
f  301 255 298
f  77 185 78
f  185 393 78
f  507 508 386
f  497 508 507
f  451 509 82
f  509 451 516
f  451 515 516
f  299 408 477
f  490 82 245
f  79 443 408
f  408 443 445
f  186 188 513
f  513 454 514
f  454 513 188
f  421 310 422
f  422 310 502
f  495 312 512
f  289 495 512
f  510 321 511
f  517 322 321
f  445 251 490
f  251 253 490
f  477 442 518
f  442 477 245
f  489 477 518
f  510 517 321
f  503 321 218
f  321 219 218
f  520 278 281
f  519 278 520
f  278 519 276
f  276 519 363
f  363 519 361
f  361 519 395
f  395 519 394
f  394 519 170
f  170 519 168
f  168 519 372
f  372 519 371
f  371 519 476
f  476 519 439
f  439 519 438
f  438 519 24
f  24 519 21
f  21 519 238
f  238 519 237
f  237 519 178
f  178 519 179
f  179 519 475
f  475 519 474
f  474 519 379
f  379 519 167
f  167 519 166
f  166 519 437
f  437 519 436
f  436 519 128
f  128 519 126
f  521 519 520
f  519 521 522
f  348 521 349
f  522 348 352
f  522 352 351
f  522 351 10
f  522 10 9
f  522 9 162
f  522 162 161
f  522 161 227
f  522 227 226
f  522 226 346
f  522 346 431
f  522 431 347
f  522 347 234
f  522 234 233
f  522 233 6
f  522 6 5
f  522 5 229
f  522 229 228
f  522 228 332
f  522 332 30
f  522 30 29
f  522 29 61
f  522 61 500
f  522 500 345
f  522 345 344
f  522 344 466
f  522 466 326
f  522 326 325
f  348 522 521
f  280 520 281
f  286 520 280
f  520 286 521
f  521 350 349
f  473 521 286
f  521 473 350
f  450 286 285
f  286 450 473
f  450 285 284
f  13 473 450
f  473 13 230
f  230 13 163
f  506 13 450
f  506 14 13
f  254 14 506
f  254 353 14
f  489 254 256
f  254 489 353
f  301 256 441
f  489 256 301
f  424 353 489
f  355 357 356
f  489 301 300
f  353 424 355
f  355 424 357
f  357 424 358
f  518 424 489
f  518 496 424
f  442 496 518
f  442 461 496
f  246 461 442
f  246 110 461
f  195 110 246
f  195 111 110
f  83 195 84
f  195 83 111
f  515 111 83
f  111 294 293
f  515 83 509
f  111 515 294
f  515 509 516
f  201 294 515
f  294 201 423
f  423 201 200
f  454 515 514
f  515 454 201
f  51 201 454
f  201 51 50
f  410 51 454
f  410 292 51
f  409 292 410
f  409 296 292
f  407 409 488
f  409 407 296
f  366 296 407
f  296 366 297
f  366 407 367
f  324 522 325
f  467 522 327
f  522 324 327
f  319 522 467
f  127 519 164
f  519 127 126
f  322 522 319
f  519 359 164
f  517 522 322
f  519 360 359
f  510 522 517
f  519 383 360
f  522 510 519
f  519 382 383
f  145 519 510
f  519 145 382
