# OpenSCAD obj exporter
v -0.011857 -0.0461826 -0.0149352
v -0.0147343 -0.0453472 -0.0149352
v -0.0101137 -0.0393906 -0.0177114
v -0.0494423 -0.0359221 -0.00808973
v -0.0504999 -0.0343658 -0.00808973
v -0.0504999 -0.0320479 -0.00880637
v -0.0460205 -0.0292053 -0.0117232
v 0.0174618 -0.00691319 -0.0233314
v 0.010745 -0.0034914 -0.0242764
v 0.0178614 -0.00580311 -0.0233314
v -0.0421087 -0.0526991 -0.00404902
v -0.0435961 -0.0526991 -0.00338622
v -0.0430145 -0.0519962 -0.00404902
v 0.046195 -0.0491924 -0.00404902
v 0.0418358 -0.0445509 -0.00808973
v 0.0445509 -0.0418358 -0.00808973
v 0.0491924 -0.046195 -0.00404902
v 0.0136909 -0.0128565 -0.0233314
v 0.00823593 -0.0077343 -0.0242764
v 0.0144711 -0.0119715 -0.0233314
v 0.0470896 -0.0389557 -0.00808973
v 0.044096 -0.0320368 -0.0117232
v 0.0494423 -0.0359221 -0.00808973
v 0.0504999 -0.0237632 -0.0110048
v 0.0493174 -0.0232067 -0.0117232
v 0.0504999 -0.0204742 -0.0117232
v 0.00070858 -0.0112762 -0.0242764
v 0.000472069 -0.00374126 -0.0247504
v 0.00141525 -0.0112085 -0.0242764
v 0.0293522 -0.0161362 -0.0200421
v 0.0221128 -0.0140333 -0.021918
v 0.0229502 -0.0126171 -0.021918
v 0.00832939 -0.032443 -0.0200421
v 0.00809288 -0.0249081 -0.021918
v 0.0103502 -0.0318556 -0.0200421
v -0.0443325 -0.0175524 -0.0149352
v -0.0504999 -0.0199941 -0.011813
v -0.0504999 -0.0169693 -0.0122958
v 0.00164413 -0.0261383 -0.021918
v 0.00117874 -0.0187435 -0.0233314
v 0.00235367 -0.0186329 -0.0233314
v -0.00964129 -0.0526991 -0.0121565
v -0.0100524 -0.0526991 -0.0121262
v -0.00893402 -0.0468359 -0.0149352
v -0.00597572 -0.0473051 -0.0149352
v -0.0445509 -0.0418358 -0.00808973
v -0.0470896 -0.0389557 -0.00808973
v -0.0397329 -0.0373116 -0.0117232
v -0.00627613 -0.0329018 -0.0200421
v -0.00832939 -0.032443 -0.0200421
v 0.0077343 -0.00823593 -0.0242764
v 0.00240326 -0.00290489 -0.0247504
v 0.00258064 -0.00274849 -0.0247504
v -0.00141525 -0.0112085 -0.0242764
v -0.0021162 -0.0110979 -0.0242764
v -0.000472069 -0.00374126 -0.0247504
v 0.0473051 -0.00597572 -0.0149352
v 0.0403471 -0.00509644 -0.0177114
v 0.0405874 -0.00255299 -0.0177114
v 0.0021162 -0.0110979 -0.0242764
v -0.0013876 -0.00350571 -0.0247504
v -0.00481033 -0.0102224 -0.0242764
v -0.00160503 -0.00341129 -0.0247504
v 0.00605392 -0.0095396 -0.0242764
v 0.00181675 -0.00330448 -0.0247504
v 0.00201988 -0.00318336 -0.0247504
v -0.0175524 -0.0443325 -0.0149352
v -0.0203009 -0.0431433 -0.0149352
v -0.0149708 -0.0378122 -0.0177114
v 0.00351906 -0.0184479 -0.0233314
v 0.00280952 -0.0109434 -0.0242764
v -0.00370407 -0.000705719 -0.0247504
v -0.0110979 -0.0021162 -0.0242764
v -0.00374126 -0.000472069 -0.0247504
v -0.0453472 -0.0147343 -0.0149352
v -0.0461826 -0.011857 -0.0149352
v -0.0393906 -0.0101137 -0.0177114
v -0.0347576 -0.0326395 -0.0149352
v -0.0367384 -0.0303926 -0.0149352
v -0.0296459 -0.0278387 -0.0177114
v 0.0169935 -0.00799656 -0.0233314
v 0.0236969 -0.0111504 -0.021918
v -0.00164413 -0.0261383 -0.021918
v -0.00328159 -0.0259829 -0.021918
v -0.00235367 -0.0186329 -0.0233314
v -0.0282803 -0.0179472 -0.0200421
v -0.0293522 -0.0161362 -0.0200421
v -0.0221128 -0.0140333 -0.021918
v 0.0239038 -0.0329008 -0.0177114
v 0.0196877 -0.0270977 -0.0200421
v 0.0259228 -0.0313349 -0.0177114
v 0.0504999 -0.0427776 -0.00486109
v 0.0504999 -0.0447119 -0.00404902
v 0.0186329 -0.00235367 -0.0233314
v 0.0112762 -0.00070858 -0.0242764
v 0.0187435 -0.00117874 -0.0233314
v 0.0257254 -0.00490665 -0.021918
v 0.0259829 -0.00328159 -0.021918
v 0.0311432 -0.0123301 -0.0200421
v 0.0243502 -0.00964069 -0.021918
v -0.00290489 -0.00240326 -0.0247504
v -0.00870514 -0.00720119 -0.0242764
v -0.0030508 -0.00221634 -0.0247504
v 0.0211878 -0.0153933 -0.021918
v 0.0151939 -0.0110388 -0.0233314
v 0 -0.0187807 -0.0233314
v 0 -0.0112982 -0.0242764
v 0.0184479 -0.00351906 -0.0233314
v 0.0109434 -0.00280952 -0.0242764
v 0.0110979 -0.0021162 -0.0242764
v 0.0468359 -0.00893402 -0.0149352
v 0.0399475 -0.00761986 -0.0177114
v -0.0504999 -0.0293459 -0.00956318
v -0.0504999 -0.0277621 -0.0100064
v -0.0477629 -0.0262575 -0.0117232
v -0.0473051 -0.00597572 -0.0149352
v -0.0504999 -0.0048253 -0.0134884
v -0.0504999 -0.00317675 -0.0135613
v -0.0475864 -0.00299358 -0.0149352
v -0.0476809 0 -0.0149352
v -0.0504999 -0.00143615 -0.0135871
v -0.0504999 0 -0.0136084
v -0.0347424 -0.041997 -0.0117232
v -0.0389557 -0.0470896 -0.00808973
v -0.0373116 -0.0397329 -0.0117232
v 0.0171227 -0.0526991 -0.0112254
v 0.0166504 -0.0526991 -0.0112979
v 0.0168428 -0.0518379 -0.0117232
v -0.0504999 -0.0427776 -0.00486109
v -0.0504999 -0.0417768 -0.00528126
v 0 -0.0261898 -0.021918
v -0.00210285 -0.0334291 -0.0200421
v 0 -0.0334949 -0.0200421
v -0.044096 -0.0320368 -0.0117232
v 0.0460205 -0.0292053 -0.0117232
v 0.0504999 -0.0320479 -0.00880637
v 0.0504999 -0.0343658 -0.00808973
v 0.0465265 -0.0526991 -0.00197755
v 0.0494882 -0.0526991 -0.000553633
v 0.0475864 -0.00299358 -0.0149352
v 0.0406685 0 -0.0177114
v 0.0476809 0 -0.0149352
v -0.0418358 -0.0445509 -0.00808973
v 0.0213499 -0.0258083 -0.0200421
v 0.0135306 -0.0526991 -0.0117686
v 0.0104009 -0.0526991 -0.0120904
v 0.011857 -0.0461826 -0.0149352
v 0.0179281 -0.0190916 -0.021918
v 0.0128565 -0.0136909 -0.0233314
v 0.0190916 -0.0179281 -0.021918
v 0.0201797 -0.0166941 -0.021918
v 0.0037632 -0.000236511 -0.0247504
v 0.00377083 0 -0.0247504
v 0.000705719 -0.00370407 -0.0247504
v -0.00651264 -0.0253668 -0.021918
v 0.00964069 -0.0243502 -0.021918
v 0.00799656 -0.0169935 -0.0233314
v 0.0111504 -0.0236969 -0.021918
v -0.00605392 -0.0095396 -0.0242764
v -0.00664043 -0.00914001 -0.0242764
v -0.00221634 -0.0030508 -0.0247504
v -0.00415897 -0.0105047 -0.0242764
v -0.00070858 -0.0112762 -0.0242764
v -0.00181675 -0.00330448 -0.0247504
v -0.0504999 -0.0164082 -0.0123854
v -0.0504999 -0.0249465 -0.0107094
v -0.0493174 -0.0232067 -0.0117232
v -0.0504999 -0.0237632 -0.0110048
v -0.0504999 -0.0204742 -0.0117232
v -0.0406685 0 -0.0177114
v -0.0166941 -0.0201797 -0.021918
v -0.0229292 -0.0244169 -0.0200421
v -0.0179281 -0.0190916 -0.021918
v -0.0213499 -0.0258083 -0.0200421
v -0.0259228 -0.0313349 -0.0177114
v -0.00809288 -0.0249081 -0.021918
v 0.0173149 -0.0367975 -0.0177114
v 0.0161362 -0.0293522 -0.0200421
v 0.0195913 -0.0356379 -0.0177114
v 0.0125666 -0.0386772 -0.0177114
v 0.0101137 -0.0393906 -0.0177114
v -0.00544262 -0.00990009 -0.0242764
v -0.0125666 -0.0386772 -0.0177114
v -0.0103502 -0.0318556 -0.0200421
v -0.0504999 -0.0200699 -0.0117989
v -0.0431433 -0.0203009 -0.0149352
v 0.0504999 -0.0474229 -0.00274573
v 0.0504999 -0.0463186 -0.00327665
v 0.0378122 -0.0149708 -0.0177114
v 0.0318556 -0.0103502 -0.0200421
v 0.0504999 -0.0249465 -0.0107094
v 0.032443 -0.00832939 -0.0200421
v 0.0249081 -0.00809288 -0.021918
v 0.0253668 -0.00651264 -0.021918
v 0.0504999 -0.00317675 -0.0135613
v 0.0504999 -0.00143615 -0.0135871
v 0.0334291 -0.00210285 -0.0200421
v 0.0261383 -0.00164413 -0.021918
v 0.0261898 0 -0.021918
v 0.0229292 -0.0244169 -0.0200421
v 0.0149708 -0.0378122 -0.0177114
v 0.0303068 -0.0142612 -0.0200421
v 0.0373116 -0.0397329 -0.0117232
v 0.0303926 -0.0367384 -0.0149352
v 0.0326395 -0.0347576 -0.0149352
v 0.0100632 -0.0158567 -0.0233314
v 0.0110388 -0.0151939 -0.0233314
v 0.0123301 -0.0311432 -0.0200421
v 0.0142612 -0.0303068 -0.0200421
v 0.0181913 -0.00467014 -0.0233314
v 0.0278387 -0.0296459 -0.0177114
v 0.0296459 -0.0278387 -0.0177114
v 0.0347576 -0.0326395 -0.0149352
v 0.0140333 -0.0221128 -0.021918
v 0.0153933 -0.0211878 -0.021918
v 0.00365257 -0.000937462 -0.0247504
v 0.0034914 -0.010745 -0.0242764
v 0.0013876 -0.00350571 -0.0247504
v 0.00415897 -0.0105047 -0.0242764
v 0.000937462 -0.00365257 -0.0247504
v 0.00370407 -0.000705719 -0.0247504
v 0.00255299 -0.0405874 -0.0177114
v 0.00210285 -0.0334291 -0.0200421
v 0.00509644 -0.0403471 -0.0177114
v 0.00467014 -0.0181913 -0.0233314
v 0.00580311 -0.0178614 -0.0233314
v 0.00116444 -0.00358582 -0.0247504
v 0 -0.00377083 -0.0247504
v 0.000236511 -0.0037632 -0.0247504
v -0.000705719 -0.00370407 -0.0247504
v 0.00358582 -0.00116444 -0.0247504
v 0.00350571 -0.0013876 -0.0247504
v 0.00914001 -0.00664043 -0.0242764
v 0.0095396 -0.00605392 -0.0242764
v -0.0417833 -0.0229702 -0.0149352
v -0.0504999 -0.00637941 -0.0134195
v -0.0326395 -0.0347576 -0.0149352
v -0.0278387 -0.0296459 -0.0177114
v -0.0405874 -0.00255299 -0.0177114
v -0.0403471 -0.00509644 -0.0177114
v -0.0109434 -0.00280952 -0.0242764
v -0.00365257 -0.000937462 -0.0247504
v -0.0332308 -0.00419807 -0.0200421
v -0.0334291 -0.00210285 -0.0200421
v -0.00240326 -0.00290489 -0.0247504
v -0.0077343 -0.00823593 -0.0242764
v -0.00258064 -0.00274849 -0.0247504
v -0.00720119 -0.00870514 -0.0242764
v -0.0166504 -0.0526991 -0.0112979
v -0.0168428 -0.0518379 -0.0117232
v -0.0138765 -0.0526991 -0.0117232
v 0.00419807 -0.0332308 -0.0200421
v 0.00627613 -0.0329018 -0.0200421
v -0.00761986 -0.0399475 -0.0177114
v 0.0147343 -0.0453472 -0.0149352
v 0.0175524 -0.0443325 -0.0149352
v -0.0465265 -0.0526991 -0.00197755
v -0.046195 -0.0491924 -0.00404902
v -0.0280256 -0.0385742 -0.0149352
v -0.0320368 -0.044096 -0.0117232
v -0.0303926 -0.0367384 -0.0149352
v -0.0200644 -0.0506773 -0.0117232
v -0.0232067 -0.0493174 -0.0117232
v -0.0504999 -0.0392781 -0.0062537
v -0.0504999 -0.0366904 -0.00726035
v -0.0140333 -0.0221128 -0.021918
v -0.0153933 -0.0211878 -0.021918
v -0.0110388 -0.0151939 -0.0233314
v 0.00328159 -0.0259829 -0.021918
v 0.00490665 -0.0257254 -0.021918
v 0 -0.0406685 -0.0177114
v -0.00299358 -0.0475864 -0.0149352
v -0.00255299 -0.0405874 -0.0177114
v -0.0270977 -0.0196877 -0.0200421
v 0.0367975 -0.0173149 -0.0177114
v 0.0334949 0 -0.0200421
v 0.0435961 -0.0526991 -0.00338622
v 0.0430145 -0.0519962 -0.00404902
v 0.0329018 -0.00627613 -0.0200421
v 0.0332308 -0.00419807 -0.0200421
v 0.0320368 -0.044096 -0.0117232
v 0.0280256 -0.0385742 -0.0149352
v 0.0179472 -0.0282803 -0.0200421
v 0.0504999 -0.0417768 -0.00528126
v 0.0292053 -0.0460205 -0.0117232
v 0.025548 -0.0402584 -0.0149352
v 0.041997 -0.0347424 -0.0117232
v 0.0367384 -0.0303926 -0.0149352
v 0.0126171 -0.0229502 -0.021918
v 0.00904751 -0.0164576 -0.0233314
v 0.0166941 -0.0201797 -0.021918
v 0.0119715 -0.0144711 -0.0233314
v 0.0397329 -0.0373116 -0.0117232
v 0.0270977 -0.0196877 -0.0200421
v 0.0385742 -0.0280256 -0.0149352
v 0.0329008 -0.0239038 -0.0177114
v 0.0402584 -0.025548 -0.0149352
v 0.034337 -0.0217905 -0.0177114
v 0.0217905 -0.034337 -0.0177114
v 0.00651264 -0.0253668 -0.021918
v 0.00374126 -0.000472069 -0.0247504
v 0.0102224 -0.00481033 -0.0242764
v 0.00330448 -0.00181675 -0.0247504
v 0.00341129 -0.00160503 -0.0247504
v -0.0119715 -0.0144711 -0.0233314
v -0.00117874 -0.0187435 -0.0233314
v -0.00964069 -0.0243502 -0.021918
v -0.00691319 -0.0174618 -0.0233314
v -0.0034914 -0.010745 -0.0242764
v 0.00691319 -0.0174618 -0.0233314
v -0.00201988 -0.00318336 -0.0247504
v -0.0128565 -0.0136909 -0.0233314
v -0.0136909 -0.0128565 -0.0233314
v -0.00823593 -0.0077343 -0.0242764
v 0.00664043 -0.00914001 -0.0242764
v -0.0504999 -0.0108923 -0.0130505
v -0.0504999 -0.00963295 -0.0131798
v -0.0468359 -0.00893402 -0.0149352
v -0.0504999 -0.0129658 -0.0128373
v -0.0329018 -0.00627613 -0.0200421
v -0.0259829 -0.00328159 -0.021918
v -0.0257254 -0.00490665 -0.021918
v -0.0186329 -0.00235367 -0.0233314
v -0.0190916 -0.0179281 -0.021918
v -0.0201797 -0.0166941 -0.021918
v -0.0112762 -0.00070858 -0.0242764
v -0.0037632 -0.000236511 -0.0247504
v 0.00274849 -0.00258064 -0.0247504
v 0.00290489 -0.00240326 -0.0247504
v 0.00221634 -0.0030508 -0.0247504
v 0.00720119 -0.00870514 -0.0242764
v -0.00116444 -0.00358582 -0.0247504
v -0.0104009 -0.0526991 -0.0120904
v -0.0135306 -0.0526991 -0.0117686
v -0.0161362 -0.0293522 -0.0200421
v -0.0179472 -0.0282803 -0.0200421
v -0.0178197 -0.0526991 -0.0110955
v -0.0208647 -0.0526991 -0.0105279
v -0.00490665 -0.0257254 -0.021918
v 0.0138765 -0.0526991 -0.0117232
v 0.0025565 -0.0526991 -0.0125355
v 0 -0.0476809 -0.0149352
v 0.00299358 -0.0475864 -0.0149352
v 0.003315 -0.0526991 -0.0125242
v -0.0025565 -0.0526991 -0.0125355
v -0.003315 -0.0526991 -0.0125242
v -0.0292053 -0.0460205 -0.0117232
v -0.025548 -0.0402584 -0.0149352
v -0.0491924 -0.046195 -0.00404902
v -0.0504999 -0.0474229 -0.00274573
v -0.0504999 -0.0463186 -0.00327665
v -0.0504999 -0.0447119 -0.00404902
v -0.0359221 -0.0494423 -0.00808973
v -0.0334435 -0.0526991 -0.0072641
v -0.0352847 -0.0526991 -0.00660728
v -0.0327463 -0.0516005 -0.00808973
v -0.0229702 -0.0417833 -0.0149352
v -0.00799656 -0.0169935 -0.0233314
v -0.0142612 -0.0303068 -0.0200421
v -0.0173149 -0.0367975 -0.0177114
v -0.0195913 -0.0356379 -0.0177114
v -0.0217905 -0.034337 -0.0177114
v 0.0504999 -0.0277621 -0.0100064
v 0.0477629 -0.0262575 -0.0117232
v 0.0504999 -0.00814681 -0.0132894
v 0.0504999 -0.00637941 -0.0134195
v 0.0431433 -0.0203009 -0.0149352
v 0.0504999 -0.0200699 -0.0117989
v 0.0393906 -0.0101137 -0.0177114
v 0.0504999 -0.0048253 -0.0134884
v 0.0356379 -0.0195913 -0.0177114
v 0.0187807 0 -0.0233314
v 0.0112982 0 -0.0242764
v 0.00481033 -0.0102224 -0.0242764
v 0.0200644 -0.0506773 -0.0117232
v 0.0347424 -0.041997 -0.0117232
v 0.0421087 -0.0526991 -0.00404902
v 0.0334435 -0.0526991 -0.0072641
v 0.0327463 -0.0516005 -0.00808973
v 0.0352847 -0.0526991 -0.00660728
v 0.0308894 -0.0526991 -0.00808973
v 0.0504999 -0.0293459 -0.00956318
v 0.0504999 -0.0392781 -0.0062537
v 0.0504999 -0.0366904 -0.00726035
v 0.0313349 -0.0259228 -0.0177114
v 0.0258083 -0.0213499 -0.0200421
v 0.0105047 -0.00415897 -0.0242764
v 0.0443325 -0.0175524 -0.0149352
v 0.0504999 -0.0199941 -0.011813
v 0.0282803 -0.0179472 -0.0200421
v 0.0244169 -0.0229292 -0.0200421
v -0.00351906 -0.0184479 -0.0233314
v -0.00467014 -0.0181913 -0.0233314
v -0.00280952 -0.0109434 -0.0242764
v 0.0112085 -0.00141525 -0.0242764
v -0.00274849 -0.00258064 -0.0247504
v 0.0203009 -0.0431433 -0.0149352
v -0.0144711 -0.0119715 -0.0233314
v -0.0187807 0 -0.0233314
v -0.0112982 0 -0.0242764
v -0.000236511 -0.0037632 -0.0247504
v -0.0100632 -0.0158567 -0.0233314
v -0.0102224 -0.00481033 -0.0242764
v -0.0105047 -0.00415897 -0.0242764
v -0.00350571 -0.0013876 -0.0247504
v -0.0095396 -0.00605392 -0.0242764
v -0.00318336 -0.00201988 -0.0247504
v -0.0244169 -0.0229292 -0.0200421
v -0.0313349 -0.0259228 -0.0177114
v -0.0399475 -0.00761986 -0.0177114
v -0.0504999 -0.00814681 -0.0132894
v -0.0504999 -0.0156632 -0.0124832
v -0.0258083 -0.0213499 -0.0200421
v -0.0311432 -0.0123301 -0.0200421
v -0.0378122 -0.0149708 -0.0177114
v -0.0318556 -0.0103502 -0.0200421
v -0.0236969 -0.0111504 -0.021918
v -0.0243502 -0.00964069 -0.021918
v -0.0356379 -0.0195913 -0.0177114
v -0.0181913 -0.00467014 -0.0233314
v -0.0184479 -0.00351906 -0.0233314
v -0.0261383 -0.00164413 -0.021918
v -0.0174618 -0.00691319 -0.0233314
v -0.0249081 -0.00809288 -0.021918
v -0.0178614 -0.00580311 -0.0233314
v -0.010745 -0.0034914 -0.0242764
v -0.00377083 0 -0.0247504
v 0.0281819 -0.0526991 -0.00882396
v 0.0232067 -0.0493174 -0.0117232
v 0.0262575 -0.0477629 -0.0117232
v 0.0289711 -0.0526991 -0.00862692
v 0.00597572 -0.0473051 -0.0149352
v 0.00761986 -0.0399475 -0.0177114
v -0.00509644 -0.0403471 -0.0177114
v 0.0229702 -0.0417833 -0.0149352
v -0.0494882 -0.0526991 -0.000553633
v -0.0247981 -0.0526991 -0.00966863
v -0.0281819 -0.0526991 -0.00882396
v -0.041997 -0.0347424 -0.0117232
v -0.0171227 -0.0526991 -0.0112254
v -0.0123301 -0.0311432 -0.0200421
v -0.0196877 -0.0270977 -0.0200421
v -0.0126171 -0.0229502 -0.021918
v -0.00580311 -0.0178614 -0.0233314
v -0.0289711 -0.0526991 -0.00862692
v -0.0262575 -0.0477629 -0.0117232
v -0.0382879 -0.0526991 -0.00553577
v 0.0504999 -0.0156632 -0.0124832
v 0.0461826 -0.011857 -0.0149352
v 0.0504999 -0.0129658 -0.0128373
v 0.0417833 -0.0229702 -0.0149352
v 0.0504999 -0.00963295 -0.0131798
v 0.0030508 -0.00221634 -0.0247504
v 0.039486 -0.0526991 -0.00506972
v 0.0389557 -0.0470896 -0.00808973
v 0.0359221 -0.0494423 -0.00808973
v 0.0382879 -0.0526991 -0.00553577
v 0.00870514 -0.00720119 -0.0242764
v 0.0453472 -0.0147343 -0.0149352
v 0.0386772 -0.0125666 -0.0177114
v 0.0164576 -0.00904751 -0.0233314
v 0.00990009 -0.00544262 -0.0242764
v 0.0158567 -0.0100632 -0.0233314
v -0.00341129 -0.00160503 -0.0247504
v -0.000937462 -0.00365257 -0.0247504
v 0.00665728 -0.0526991 -0.0123761
v 0.0040334 -0.0526991 -0.0124924
v -0.0112085 -0.00141525 -0.0242764
v -0.0169935 -0.00799656 -0.0233314
v -0.00330448 -0.00181675 -0.0247504
v -0.0111504 -0.0236969 -0.021918
v -0.0367975 -0.0173149 -0.0177114
v -0.0211878 -0.0153933 -0.021918
v 0.00544262 -0.00990009 -0.0242764
v -0.0402584 -0.025548 -0.0149352
v -0.0334949 0 -0.0200421
v -0.032443 -0.00832939 -0.0200421
v -0.0253668 -0.00651264 -0.021918
v -0.0261898 0 -0.021918
v -0.00990009 -0.00544262 -0.0242764
v 0.029415 -0.0526991 -0.0085027
v 0 -0.0526991 -0.0125734
v -0.0040334 -0.0526991 -0.0124924
v -0.00665728 -0.0526991 -0.0123761
v -0.0239038 -0.0329008 -0.0177114
v -0.039486 -0.0526991 -0.00506972
v 0.0504999 -0.0108923 -0.0130505
v 0.0504999 0 -0.0136084
v 0.0226708 -0.0526991 -0.0101333
v 0.0247981 -0.0526991 -0.00966863
v 0.0504999 -0.0526991 -3.35487e-05
v 0.00318336 -0.00201988 -0.0247504
v 0.0504999 -0.0164082 -0.0123854
v 0.00893402 -0.0468359 -0.0149352
v 0.00964129 -0.0526991 -0.0121565
v 0.0100524 -0.0526991 -0.0121262
v -0.0229502 -0.0126171 -0.021918
v -0.0386772 -0.0125666 -0.0177114
v -0.0151939 -0.0110388 -0.0233314
v -0.034337 -0.0217905 -0.0177114
v -0.0385742 -0.0280256 -0.0149352
v -0.0329008 -0.0239038 -0.0177114
v -0.00358582 -0.00116444 -0.0247504
v 0.0178197 -0.0526991 -0.0110955
v -0.0504999 -0.0526991 -3.35487e-05
v -0.00419807 -0.0332308 -0.0200421
v -0.029415 -0.0526991 -0.0085027
v 0.0504999 -0.0169693 -0.0122958
v -0.0158567 -0.0100632 -0.0233314
v -0.0164576 -0.00904751 -0.0233314
v 0.00160503 -0.00341129 -0.0247504
v -0.00904751 -0.0164576 -0.0233314
v -0.0303068 -0.0142612 -0.0200421
v -0.0187435 -0.00117874 -0.0233314
v -0.0226708 -0.0526991 -0.0101333
v -0.00914001 -0.00664043 -0.0242764
v 0.0208647 -0.0526991 -0.0105279
v -0.0308894 -0.0526991 -0.00808973
v 0.0504999 -0.0526991 2.85915e-07
v 0.0504999 0 2.85915e-07
v -0.0504999 0 2.85915e-07
v -0.0504999 -0.0526991 2.85915e-07
f  1 2 3
f  6 4 5
f  4 6 7
f  8 9 10
f  11 12 13
f  14 16 17
f  16 14 15
f  18 19 20
f  21 22 23
f  24 25 26
f  27 28 29
f  30 31 32
f  33 34 35
f  36 37 38
f  39 40 41
f  42 44 45
f  44 42 43
f  46 47 48
f  49 3 50
f  51 52 53
f  54 55 56
f  57 58 59
f  29 28 60
f  61 62 63
f  64 65 66
f  67 68 69
f  70 60 71
f  72 73 74
f  75 76 77
f  78 79 80
f  32 81 82
f  83 84 85
f  86 87 88
f  89 90 91
f  17 92 93
f  92 17 16
f  94 95 96
f  97 94 98
f  99 82 100
f  101 102 103
f  104 105 31
f  27 106 107
f  108 109 110
f  111 112 57
f  113 115 7
f  115 113 114
f  40 106 27
f  117 119 116
f  119 117 118
f  120 121 122
f  123 124 125
f  126 127 128
f  130 46 129
f  46 130 47
f  131 132 83
f  133 132 131
f  134 4 7
f  23 136 137
f  136 23 135
f  138 14 139
f  140 141 142
f  124 13 143
f  91 90 144
f  145 146 147
f  41 60 70
f  148 18 150
f  18 148 149
f  151 20 105
f  95 152 153
f  60 28 154
f  49 50 155
f  156 157 158
f  159 160 161
f  162 62 61
f  163 54 56
f  63 62 164
f  38 75 36
f  75 38 165
f  166 115 114
f  115 166 167
f  167 168 169
f  119 120 170
f  171 172 173
f  174 175 172
f  155 50 176
f  39 106 40
f  177 178 179
f  180 181 35
f  62 182 164
f  183 69 184
f  2 69 183
f  169 186 167
f  186 169 185
f  187 17 188
f  189 99 190
f  191 25 24
f  192 193 194
f  140 196 195
f  196 140 142
f  197 198 199
f  91 144 200
f  180 35 201
f  202 32 82
f  203 204 205
f  206 64 207
f  208 158 209
f  193 210 194
f  150 18 151
f  205 212 213
f  212 205 211
f  214 207 215
f  177 208 209
f  109 216 110
f  217 218 219
f  108 110 94
f  60 220 71
f  110 216 221
f  41 29 60
f  222 223 224
f  70 71 225
f  34 225 226
f  217 227 218
f  27 228 229
f  56 55 230
f  9 231 216
f  9 232 231
f  105 233 234
f  7 6 113
f  235 167 186
f  116 236 117
f  237 80 238
f  80 237 78
f  116 119 239
f  240 116 239
f  241 73 242
f  243 240 244
f  245 246 247
f  161 248 245
f  249 250 251
f  224 252 253
f  45 44 254
f  128 255 256
f  12 258 13
f  258 12 257
f  259 260 261
f  262 263 68
f  265 47 264
f  47 265 4
f  266 267 268
f  253 269 270
f  222 271 223
f  271 272 273
f  274 86 88
f  23 22 135
f  140 59 141
f  275 99 189
f  141 197 276
f  197 199 276
f  277 14 138
f  14 277 278
f  279 98 280
f  210 109 108
f  281 282 204
f  178 214 283
f  16 284 92
f  284 16 21
f  285 286 281
f  287 288 22
f  204 89 91
f  289 157 290
f  291 207 292
f  193 8 10
f  99 100 193
f  203 213 293
f  213 203 205
f  294 151 104
f  295 296 297
f  296 294 298
f  179 178 299
f  283 214 90
f  35 34 208
f  33 300 34
f  27 107 228
f  110 221 301
f  302 303 304
f  158 157 289
f  160 305 248
f  292 51 149
f  224 223 252
f  223 39 252
f  269 41 270
f  269 39 41
f  83 85 306
f  176 307 308
f  309 162 61
f  185 36 186
f  36 185 37
f  310 219 157
f  164 159 311
f  312 314 246
f  314 312 313
f  207 64 315
f  167 166 168
f  316 318 76
f  318 316 317
f  7 115 235
f  115 167 235
f  76 319 316
f  76 318 77
f  121 119 118
f  119 121 120
f  261 237 238
f  320 243 321
f  322 321 323
f  324 325 313
f  74 326 327
f  95 301 152
f  9 216 109
f  19 328 329
f  315 330 331
f  332 309 61
f  333 334 1
f  335 336 266
f  337 262 250
f  262 337 338
f  251 1 334
f  1 251 250
f  84 339 85
f  107 163 228
f  127 340 128
f  181 253 33
f  341 343 344
f  343 341 342
f  345 272 342
f  272 345 346
f  342 272 271
f  347 260 348
f  124 143 125
f  349 350 351
f  349 351 352
f  353 124 260
f  354 355 356
f  68 263 357
f  333 44 43
f  44 333 1
f  308 307 358
f  359 360 335
f  68 357 361
f  357 348 362
f  188 17 93
f  364 191 363
f  191 364 25
f  365 57 366
f  367 26 25
f  26 367 368
f  369 190 192
f  59 197 141
f  366 57 370
f  97 108 94
f  371 30 275
f  372 95 373
f  219 218 374
f  299 90 89
f  375 128 256
f  293 288 287
f  281 286 282
f  376 204 203
f  277 377 278
f  378 379 380
f  378 381 379
f  136 135 382
f  21 384 383
f  384 21 23
f  292 331 51
f  90 214 215
f  20 233 105
f  144 291 200
f  385 386 294
f  294 104 31
f  82 81 100
f  81 302 387
f  8 387 9
f  193 10 210
f  192 194 279
f  368 388 389
f  388 368 367
f  275 30 202
f  22 288 295
f  298 390 30
f  391 150 151
f  385 391 386
f  390 31 30
f  369 192 279
f  297 296 298
f  299 283 90
f  299 178 283
f  289 290 214
f  178 289 214
f  209 289 178
f  177 209 178
f  33 253 300
f  34 310 156
f  392 393 394
f  94 110 395
f  110 301 395
f  305 312 246
f  246 396 247
f  396 246 314
f  40 27 41
f  41 27 29
f  253 270 300
f  375 256 397
f  71 220 217
f  64 330 315
f  314 398 102
f  326 399 400
f  27 229 28
f  401 163 56
f  309 308 162
f  85 392 55
f  162 358 62
f  402 266 268
f  182 159 164
f  403 404 405
f  60 154 220
f  103 406 407
f  290 64 206
f  324 408 325
f  80 79 409
f  410 116 240
f  411 318 317
f  318 411 116
f  412 75 165
f  75 412 76
f  76 412 319
f  408 413 325
f  414 415 416
f  239 119 170
f  417 414 418
f  235 186 419
f  320 240 243
f  420 322 421
f  321 422 323
f  423 424 425
f  322 320 321
f  426 420 241
f  425 420 426
f  327 326 427
f  331 52 51
f  116 411 236
f  223 131 39
f  271 273 132
f  428 430 431
f  430 428 429
f  397 177 179
f  432 222 224
f  432 224 433
f  343 342 271
f  45 254 434
f  429 397 435
f  181 33 35
f  4 265 5
f  47 130 264
f  129 349 352
f  349 129 46
f  257 436 258
f  262 68 67
f  437 438 263
f  47 4 134
f  439 134 79
f  125 78 237
f  78 125 48
f  143 48 125
f  48 143 46
f  261 125 237
f  260 124 123
f  3 183 184
f  3 2 183
f  249 440 250
f  440 337 250
f  69 360 441
f  3 184 50
f  254 3 49
f  50 184 176
f  336 362 442
f  443 335 266
f  393 176 444
f  308 358 162
f  438 446 263
f  446 438 445
f  355 353 356
f  353 355 447
f  175 261 238
f  361 357 362
f  284 21 383
f  448 449 450
f  364 451 25
f  382 364 363
f  364 382 135
f  280 198 197
f  58 279 280
f  111 365 452
f  365 111 57
f  298 30 371
f  397 201 177
f  279 97 98
f  279 194 97
f  280 98 198
f  98 94 198
f  198 372 199
f  96 95 372
f  233 453 234
f  286 89 282
f  282 89 204
f  454 278 377
f  278 454 455
f  379 285 456
f  380 456 457
f  456 380 379
f  281 204 376
f  291 292 149
f  291 149 148
f  151 18 20
f  20 458 233
f  20 19 458
f  212 391 385
f  90 291 144
f  200 291 148
f  202 82 99
f  459 460 369
f  302 232 387
f  32 461 81
f  81 462 302
f  462 303 302
f  458 453 233
f  97 210 108
f  194 210 97
f  81 387 8
f  387 232 9
f  210 9 109
f  10 9 210
f  369 279 112
f  111 369 112
f  16 293 21
f  15 293 16
f  293 15 203
f  213 212 288
f  204 211 205
f  298 294 390
f  294 31 390
f  385 294 296
f  288 212 385
f  151 105 104
f  105 234 463
f  22 297 135
f  22 295 297
f  459 189 460
f  30 32 202
f  286 299 89
f  397 179 435
f  209 158 289
f  156 310 157
f  310 217 219
f  270 225 300
f  300 225 34
f  395 301 95
f  94 395 95
f  464 403 405
f  230 55 465
f  270 70 225
f  270 41 70
f  466 467 432
f  225 217 226
f  225 71 217
f  468 326 74
f  314 102 101
f  417 418 469
f  313 398 314
f  396 314 101
f  470 403 464
f  444 176 308
f  307 471 358
f  394 393 309
f  39 131 106
f  131 83 106
f  419 186 472
f  175 238 172
f  413 274 325
f  473 274 88
f  184 69 441
f  184 441 176
f  290 474 64
f  404 426 405
f  214 206 207
f  214 290 206
f  306 85 163
f  163 85 54
f  413 409 274
f  48 439 79
f  134 7 475
f  244 170 476
f  477 77 320
f  416 77 477
f  77 318 410
f  318 116 410
f  424 478 420
f  421 322 323
f  420 421 241
f  425 424 420
f  422 244 479
f  422 479 399
f  407 406 470
f  480 469 403
f  429 435 430
f  456 285 281
f  481 379 381
f  379 481 285
f  482 345 342
f  483 272 346
f  272 483 45
f  49 155 339
f  272 45 273
f  483 484 45
f  201 35 208
f  201 208 177
f  258 46 143
f  46 258 349
f  13 258 143
f  48 47 439
f  439 47 134
f  357 347 348
f  1 250 2
f  2 67 69
f  84 49 339
f  223 133 131
f  348 259 485
f  336 442 266
f  69 68 360
f  360 68 361
f  347 353 260
f  348 260 259
f  447 124 353
f  124 447 486
f  13 486 11
f  486 13 124
f  263 446 357
f  450 449 487
f  459 369 449
f  135 451 364
f  297 298 451
f  384 23 137
f  196 142 488
f  370 140 195
f  140 370 57
f  57 59 140
f  489 429 490
f  429 489 375
f  490 429 428
f  198 96 372
f  198 94 96
f  95 153 373
f  474 65 64
f  51 328 19
f  328 51 53
f  19 329 458
f  139 187 491
f  14 187 139
f  187 14 17
f  455 376 203
f  455 281 376
f  90 215 291
f  215 207 291
f  149 19 18
f  19 149 51
f  463 234 461
f  31 105 463
f  234 453 492
f  234 492 303
f  234 303 462
f  100 81 8
f  100 8 193
f  58 280 197
f  58 197 59
f  459 448 493
f  448 459 449
f  388 189 459
f  367 189 388
f  135 297 451
f  99 193 190
f  190 193 192
f  288 385 296
f  288 296 295
f  91 200 211
f  204 91 211
f  31 463 461
f  31 461 32
f  211 391 212
f  391 211 200
f  200 150 391
f  150 200 148
f  275 202 99
f  25 451 367
f  157 219 374
f  157 474 290
f  208 156 158
f  208 34 156
f  226 217 310
f  34 226 310
f  55 394 465
f  217 220 227
f  311 159 161
f  252 39 269
f  252 269 253
f  494 433 181
f  494 432 433
f  495 494 496
f  494 495 432
f  466 432 495
f  497 417 469
f  469 418 423
f  402 268 159
f  259 261 485
f  471 443 358
f  160 248 161
f  248 246 245
f  248 305 246
f  331 330 52
f  242 73 72
f  359 335 443
f  62 358 182
f  339 155 393
f  155 176 393
f  106 83 306
f  174 172 171
f  415 75 498
f  415 498 416
f  398 325 499
f  325 274 473
f  472 186 415
f  500 419 87
f  171 173 312
f  305 171 312
f  292 315 331
f  207 315 292
f  54 85 55
f  55 392 394
f  106 163 107
f  106 306 163
f  36 75 415
f  79 134 501
f  88 87 497
f  502 500 274
f  475 7 235
f  475 235 500
f  78 48 79
f  409 502 274
f  240 239 244
f  239 170 244
f  416 477 424
f  414 416 424
f  77 410 320
f  410 240 320
f  503 426 242
f  405 426 503
f  424 477 478
f  477 320 478
f  468 323 326
f  321 243 422
f  243 244 422
f  403 469 404
f  426 241 242
f  458 329 453
f  302 304 232
f  429 375 397
f  126 128 504
f  435 299 286
f  431 285 481
f  285 431 430
f  484 42 45
f  44 3 254
f  44 1 3
f  435 179 299
f  256 201 397
f  350 258 436
f  350 436 505
f  258 350 349
f  356 353 347
f  250 67 2
f  250 262 67
f  434 49 506
f  506 49 84
f  442 175 174
f  442 174 171
f  307 441 471
f  176 441 307
f  360 361 335
f  441 360 359
f  485 261 175
f  485 175 442
f  123 125 261
f  260 123 261
f  446 347 357
f  445 347 446
f  347 445 507
f  456 281 455
f  457 455 454
f  455 457 456
f  278 15 14
f  461 462 81
f  461 234 462
f  112 279 58
f  57 112 58
f  508 459 493
f  459 508 388
f  389 388 508
f  449 369 111
f  487 111 452
f  111 487 449
f  451 371 367
f  451 298 371
f  189 190 460
f  460 190 369
f  21 287 22
f  21 293 287
f  293 213 288
f  391 151 386
f  386 151 294
f  64 66 330
f  433 224 253
f  433 253 181
f  341 482 342
f  343 467 344
f  467 343 432
f  172 324 173
f  324 172 408
f  313 325 398
f  499 88 509
f  509 510 406
f  267 171 268
f  268 171 305
f  374 218 511
f  182 512 159
f  358 512 182
f  443 266 512
f  358 443 512
f  444 308 309
f  393 444 309
f  408 409 413
f  238 408 172
f  408 238 80
f  473 88 499
f  325 473 499
f  418 414 424
f  510 469 480
f  394 309 465
f  465 309 332
f  85 339 392
f  392 339 393
f  301 153 152
f  221 153 301
f  216 153 221
f  231 153 216
f  232 153 231
f  304 153 232
f  303 153 304
f  492 153 303
f  453 153 492
f  329 153 453
f  328 153 329
f  53 153 328
f  52 153 53
f  330 153 52
f  66 153 330
f  65 153 66
f  511 153 65
f  218 153 511
f  227 153 218
f  220 153 227
f  154 153 220
f  28 153 154
f  229 153 28
f  228 153 229
f  401 153 228
f  56 153 401
f  230 153 56
f  465 153 230
f  332 153 465
f  61 153 332
f  63 153 61
f  164 153 63
f  311 153 164
f  161 153 311
f  245 153 161
f  247 153 245
f  396 153 247
f  101 153 396
f  103 153 101
f  407 153 103
f  470 153 407
f  464 153 470
f  405 153 464
f  503 153 405
f  242 153 503
f  72 153 242
f  74 153 72
f  327 153 74
f  153 327 427
f  472 415 414
f  186 36 415
f  87 472 513
f  513 472 414
f  501 134 475
f  409 79 502
f  244 476 479
f  478 322 420
f  478 320 322
f  241 421 73
f  73 468 74
f  514 422 399
f  514 399 326
f  404 423 426
f  423 425 426
f  255 181 180
f  255 180 201
f  256 255 201
f  147 340 145
f  340 147 128
f  285 435 286
f  430 435 285
f  515 263 262
f  263 515 437
f  223 271 133
f  271 132 133
f  434 254 49
f  132 434 506
f  335 362 336
f  361 362 335
f  471 359 443
f  441 359 471
f  374 511 65
f  455 203 15
f  278 455 15
f  367 275 189
f  367 371 275
f  343 271 222
f  343 222 432
f  173 313 312
f  313 173 324
f  509 88 510
f  88 497 510
f  516 406 103
f  499 509 406
f  159 268 160
f  268 305 160
f  266 442 267
f  267 442 171
f  512 266 402
f  512 402 159
f  79 501 502
f  501 475 502
f  398 499 516
f  516 499 406
f  418 424 423
f  469 423 404
f  157 374 474
f  374 65 474
f  228 163 401
f  498 75 77
f  498 77 416
f  87 513 497
f  419 472 87
f  73 323 468
f  421 323 73
f  494 146 496
f  146 494 147
f  147 494 181
f  517 375 489
f  504 375 517
f  375 504 128
f  518 347 507
f  347 518 356
f  518 354 356
f  338 515 262
f  273 45 434
f  273 434 132
f  83 506 84
f  132 506 83
f  362 348 485
f  362 485 442
f  480 403 470
f  510 497 469
f  406 480 470
f  406 510 480
f  80 409 408
f  502 475 500
f  500 235 419
f  102 516 103
f  102 398 516
f  513 414 417
f  497 513 417
f  323 422 514
f  323 514 326
f  128 147 255
f  147 181 255
f  86 500 87
f  274 500 86
f  326 400 427
f  520 196 488
f  520 195 196
f  520 370 195
f  520 366 370
f  520 365 366
f  520 452 365
f  520 487 452
f  520 450 487
f  520 448 450
f  520 493 448
f  520 508 493
f  520 389 508
f  520 368 389
f  520 26 368
f  520 24 26
f  520 191 24
f  520 363 191
f  520 382 363
f  520 136 382
f  520 137 136
f  520 384 137
f  520 383 384
f  520 284 383
f  520 92 284
f  520 93 92
f  520 188 93
f  520 187 188
f  519 187 520
f  187 519 491
f  521 519 520
f  519 521 522
f  121 521 122
f  118 521 121
f  117 521 118
f  236 521 117
f  411 521 236
f  317 521 411
f  316 521 317
f  319 521 316
f  412 521 319
f  165 521 412
f  38 521 165
f  37 521 38
f  185 521 37
f  169 521 185
f  168 521 169
f  166 521 168
f  114 521 166
f  113 521 114
f  6 521 113
f  5 521 6
f  265 521 5
f  264 521 265
f  130 521 264
f  129 521 130
f  352 521 129
f  351 521 352
f  350 521 351
f  522 350 505
f  350 522 521
f  142 520 488
f  276 520 141
f  520 142 141
f  199 520 276
f  120 521 170
f  521 120 122
f  372 520 199
f  521 476 170
f  373 520 372
f  521 479 476
f  153 520 373
f  521 399 479
f  520 153 521
f  521 400 399
f  427 521 153
f  521 427 400
f  436 522 505
f  257 522 436
f  522 257 519
f  519 139 491
f  138 519 257
f  519 138 139
f  486 257 12
f  257 486 138
f  486 12 11
f  454 138 486
f  138 454 277
f  277 454 377
f  447 454 486
f  447 457 454
f  355 457 447
f  355 380 457
f  438 355 354
f  355 438 380
f  507 354 518
f  438 354 507
f  428 380 438
f  378 481 381
f  438 507 445
f  380 428 378
f  378 428 481
f  481 428 431
f  437 428 438
f  437 490 428
f  515 490 437
f  515 489 490
f  338 489 515
f  338 517 489
f  337 517 338
f  337 504 517
f  249 337 440
f  337 249 504
f  333 504 249
f  504 127 126
f  333 249 251
f  504 333 127
f  333 251 334
f  146 127 333
f  127 146 340
f  340 146 145
f  42 333 43
f  333 42 146
f  495 146 42
f  146 495 496
f  484 495 42
f  484 466 495
f  483 466 484
f  483 467 466
f  345 483 346
f  483 345 467
f  341 467 345
f  467 341 344
f  341 345 482
