# OpenSCAD obj exporter
v -0.0358359 0.0526991 -0.00214883
v -0.0504999 0.0398543 -0.0207379
v -0.0504999 0.0491287 2.85915e-07
v -0.0389461 0.0526991 2.85915e-07
v 0.0436341 0.0476242 2.85915e-07
v 0.0341465 0.0526991 -0.0101496
v 0.0397572 0.0526991 2.85915e-07
v 0.0504999 0.0207268 -0.0247504
v 0.0260753 0.0526991 -0.0247504
v 0.0504999 0.0386367 2.85915e-07
v 0.0504999 0 -0.0247504
v -0.0504999 0 -0.0247504
v -0.0504999 0.0380598 -0.0247504
v -0.00312626 0.0526991 -0.0247504
v 0.0504999 0 2.85915e-07
v -0.0504999 0 2.85915e-07
f  2 4 1
f  4 2 3
f  5 6 7
f  10 6 5
f  6 10 9
f  9 10 8
f  14 8 11
f  8 14 9
f  12 14 11
f  14 12 13
f  13 1 14
f  1 13 2
f  15 8 10
f  8 15 11
f  5 15 10
f  4 5 7
f  5 4 15
f  16 4 3
f  4 16 15
f  12 2 13
f  2 12 16
f  2 16 3
f  7 1 4
f  14 7 6
f  14 6 9
f  7 14 1
f  12 15 16
f  15 12 11
