# OpenSCAD obj exporter
v 0.0504999 -0.0263491 -0.0169807
v 0.0462049 -0.0263491 -0.0247504
v 0.0504999 -0.0207268 -0.0247504
v 0.0504999 0.0207268 -0.0247504
v 0.0462049 0.0263491 -0.0247504
v 0.0504999 0.0263491 -0.0169807
v -0.0504999 -0.0263491 -0.0247504
v -0.0504999 0.0263491 -0.0247504
v 0.0504999 -0.0263491 2.85915e-07
v 0.0504999 0.0263491 2.85915e-07
v -0.0504999 0.0263491 2.85915e-07
v -0.0504999 -0.0263491 2.85915e-07
f  1 2 3
f  4 5 6
f  2 4 3
f  2 5 4
f  7 5 2
f  5 7 8
f  10 4 6
f  10 3 4
f  9 3 10
f  3 9 1
f  11 9 10
f  9 11 12
f  7 11 8
f  11 7 12
f  5 10 6
f  10 5 11
f  11 5 8
f  2 9 12
f  2 12 7
f  9 2 1
