# OpenSCAD obj exporter
v 0.0318556 0.0103502 -0.0200421
v 0.0249081 0.00809288 -0.021918
v 0.0311432 0.0123301 -0.0200421
v -0.0443325 0.0175524 -0.0149352
v -0.0504999 0.0199941 -0.011813
v -0.0504999 0.0200699 -0.0117989
v -0.0431433 0.0203009 -0.0149352
v -0.0470896 0.0389557 -0.00808973
v -0.0504999 0.0417768 -0.00528126
v -0.0504999 0.0427776 -0.00486109
v -0.0445509 0.0418358 -0.00808973
v -0.0389557 0.0470896 -0.00808973
v -0.039486 0.0526991 -0.00506972
v -0.0382879 0.0526991 -0.00553577
v -0.0359221 0.0494423 -0.00808973
v -0.0378122 0.0149708 -0.0177114
v -0.0367975 0.0173149 -0.0177114
v -0.0030508 0.00221634 -0.0247504
v -0.00870514 0.00720119 -0.0242764
v -0.00290489 0.00240326 -0.0247504
v 0.0504999 0.0200699 -0.0117989
v 0.0431433 0.0203009 -0.0149352
v 0.0493174 0.0232067 -0.0117232
v 0.0504999 0.0204742 -0.0117232
v 0.0211878 0.0153933 -0.021918
v 0.0201797 0.0166941 -0.021918
v 0.0270977 0.0196877 -0.0200421
v -0.0461826 0.011857 -0.0149352
v -0.0504999 0.0108923 -0.0130505
v -0.0504999 0.0129658 -0.0128373
v -0.00691319 0.0174618 -0.0233314
v -0.00964069 0.0243502 -0.021918
v -0.00809288 0.0249081 -0.021918
v -0.0491924 0.046195 -0.00404902
v -0.046195 0.0491924 -0.00404902
v -0.0418358 0.0445509 -0.00808973
v 0.0329018 0.00627613 -0.0200421
v 0.0253668 0.00651264 -0.021918
v 0.032443 0.00832939 -0.0200421
v -0.00823593 0.0077343 -0.0242764
v -0.0136909 0.0128565 -0.0233314
v -0.0128565 0.0136909 -0.0233314
v -0.0077343 0.00823593 -0.0242764
v 0 0.0261898 -0.021918
v -0.00210285 0.0334291 -0.0200421
v 0 0.0334949 -0.0200421
v -0.00761986 0.0399475 -0.0177114
v -0.0101137 0.0393906 -0.0177114
v -0.00893402 0.0468359 -0.0149352
v -0.0100524 0.0526991 -0.0121262
v -0.00964129 0.0526991 -0.0121565
v -0.00597572 0.0473051 -0.0149352
v -0.0430145 0.0519962 -0.00404902
v 0.00351906 0.0184479 -0.0233314
v 0.00235367 0.0186329 -0.0233314
v 0.00490665 0.0257254 -0.021918
v -0.0229702 0.0417833 -0.0149352
v -0.0292053 0.0460205 -0.0117232
v -0.0262575 0.0477629 -0.0117232
v -0.0468359 0.00893402 -0.0149352
v -0.0504999 0.00963295 -0.0131798
v -0.0385742 0.0280256 -0.0149352
v -0.044096 0.0320368 -0.0117232
v -0.0367384 0.0303926 -0.0149352
v 0.0037632 0.000236511 -0.0247504
v 0.00374126 0.000472069 -0.0247504
v 0.0112762 0.00070858 -0.0242764
v 0.0453472 0.0147343 -0.0149352
v 0.0378122 0.0149708 -0.0177114
v 0.0443325 0.0175524 -0.0149352
v 0.0257254 0.00490665 -0.021918
v 0.0393906 0.0101137 -0.0177114
v 0.0386772 0.0125666 -0.0177114
v 0.0174618 0.00691319 -0.0233314
v 0.0105047 0.00415897 -0.0242764
v 0.0169935 0.00799656 -0.0233314
v 0.0179472 0.0282803 -0.0200421
v 0.0161362 0.0293522 -0.0200421
v 0.0217905 0.034337 -0.0177114
v 0.0151939 0.0110388 -0.0233314
v 0.0144711 0.0119715 -0.0233314
v 0.0168428 0.0518379 -0.0117232
v 0.0166504 0.0526991 -0.0112979
v 0.0171227 0.0526991 -0.0112254
v 0.0187435 0.00117874 -0.0233314
v 0.0186329 0.00235367 -0.0233314
v 0.0261383 0.00164413 -0.021918
v 0.041997 0.0347424 -0.0117232
v 0.0367384 0.0303926 -0.0149352
v 0.0397329 0.0373116 -0.0117232
v -0.0280256 0.0385742 -0.0149352
v -0.0320368 0.044096 -0.0117232
v -0.025548 0.0402584 -0.0149352
v -0.00255299 0.0405874 -0.0177114
v 0 0.0406685 -0.0177114
v -0.00117874 0.0187435 -0.0233314
v -0.00164413 0.0261383 -0.021918
v 0 0.0187807 -0.0233314
v -0.00221634 0.0030508 -0.0247504
v -0.00664043 0.00914001 -0.0242764
v -0.00605392 0.0095396 -0.0242764
v -0.0229502 0.0126171 -0.021918
v -0.0293522 0.0161362 -0.0200421
v -0.0221128 0.0140333 -0.021918
v -0.0144711 0.0119715 -0.0233314
v -0.0201797 0.0166941 -0.021918
v 0.010745 0.0034914 -0.0242764
v -0.0402584 0.025548 -0.0149352
v -0.0200644 0.0506773 -0.0117232
v -0.0208647 0.0526991 -0.0105279
v -0.0178197 0.0526991 -0.0110955
v -0.0168428 0.0518379 -0.0117232
v 0.00691319 0.0174618 -0.0233314
v 0.00580311 0.0178614 -0.0233314
v 0.00809288 0.0249081 -0.021918
v 0.0417833 0.0229702 -0.0149352
v 0.034337 0.0217905 -0.0177114
v 0.0402584 0.025548 -0.0149352
v 0.0258083 0.0213499 -0.0200421
v 0.0158567 0.0100632 -0.0233314
v 0.0221128 0.0140333 -0.021918
v -0.00627613 0.0329018 -0.0200421
v 0.0303926 0.0367384 -0.0149352
v 0.0280256 0.0385742 -0.0149352
v 0.0320368 0.044096 -0.0117232
v 0.0504999 0 -0.0136084
v 0.0476809 0 -0.0149352
v 0.0504999 0.00143615 -0.0135871
v 0.0405874 0.00255299 -0.0177114
v 0.0403471 0.00509644 -0.0177114
v 0.0473051 0.00597572 -0.0149352
v 0.0475864 0.00299358 -0.0149352
v -0.000937462 0.00365257 -0.0247504
v -0.0034914 0.010745 -0.0242764
v -0.00280952 0.0109434 -0.0242764
v -0.0232067 0.0493174 -0.0117232
v -0.0203009 0.0431433 -0.0149352
v -0.0329008 0.0239038 -0.0177114
v -0.0313349 0.0259228 -0.0177114
v -0.0356379 0.0195913 -0.0177114
v -0.0417833 0.0229702 -0.0149352
v -0.00274849 0.00258064 -0.0247504
v -0.00490665 0.0257254 -0.021918
v -0.00328159 0.0259829 -0.021918
v 0.00377083 0 -0.0247504
v 0.00990009 0.00544262 -0.0242764
v 0.00330448 0.00181675 -0.0247504
v 0.0095396 0.00605392 -0.0242764
v -0.00351906 0.0184479 -0.0233314
v -0.00235367 0.0186329 -0.0233314
v -0.00544262 0.00990009 -0.0242764
v -0.00904751 0.0164576 -0.0233314
v -0.00799656 0.0169935 -0.0233314
v -0.0270977 0.0196877 -0.0200421
v -0.0258083 0.0213499 -0.0200421
v -0.0244169 0.0229292 -0.0200421
v -0.034337 0.0217905 -0.0177114
v -0.0453472 0.0147343 -0.0149352
v -0.0373116 0.0397329 -0.0117232
v -0.0494423 0.0359221 -0.00808973
v -0.0504999 0.0366904 -0.00726035
v -0.0504999 0.0392781 -0.0062537
v -0.0421087 0.0526991 -0.00404902
v 0.0406685 0 -0.0177114
v 0.0356379 0.0195913 -0.0177114
v 0.0504999 0.00637941 -0.0134195
v 0.0504999 0.00814681 -0.0132894
v 0.0504999 0.0343658 -0.00808973
v 0.0494423 0.0359221 -0.00808973
v 0.0504999 0.0366904 -0.00726035
v 0.0296459 0.0278387 -0.0177114
v 0.0278387 0.0296459 -0.0177114
v 0.0326395 0.0347576 -0.0149352
v 0.0347576 0.0326395 -0.0149352
v 0.0367975 0.0173149 -0.0177114
v 0.0329008 0.0239038 -0.0177114
v 0.0461826 0.011857 -0.0149352
v 0.0504999 0.0164082 -0.0123854
v 0.0504999 0.0156632 -0.0124832
v 0.044096 0.0320368 -0.0117232
v 0.0259829 0.00328159 -0.021918
v 0.0332308 0.00419807 -0.0200421
v 0.0100632 0.0158567 -0.0233314
v 0.00904751 0.0164576 -0.0233314
v 0.0140333 0.0221128 -0.021918
v 0.00761986 0.0399475 -0.0177114
v 0.00509644 0.0403471 -0.0177114
v 0.00597572 0.0473051 -0.0149352
v 0.0373116 0.0397329 -0.0117232
v 0.0504999 0.0108923 -0.0130505
v 0.0504999 0.0129658 -0.0128373
v -0.00240326 0.00290489 -0.0247504
v -0.00720119 0.00870514 -0.0242764
v -0.0142612 0.0303068 -0.0200421
v -0.0173149 0.0367975 -0.0177114
v -0.0123301 0.0311432 -0.0200421
v 0.0178197 0.0526991 -0.0110955
v -0.0303926 0.0367384 -0.0149352
v -0.0347424 0.041997 -0.0117232
v -0.0175524 0.0443325 -0.0149352
v -0.011857 0.0461826 -0.0149352
v -0.0135306 0.0526991 -0.0117686
v -0.0104009 0.0526991 -0.0120904
v 0.0110388 0.0151939 -0.0233314
v 0.00605392 0.0095396 -0.0242764
v -0.00341129 0.00160503 -0.0247504
v -0.0102224 0.00481033 -0.0242764
v -0.00330448 0.00181675 -0.0247504
v -0.0095396 0.00605392 -0.0242764
v -0.00914001 0.00664043 -0.0242764
v 0.00799656 0.0169935 -0.0233314
v 0.00415897 0.0105047 -0.0242764
v -0.0259829 0.00328159 -0.021918
v -0.0332308 0.00419807 -0.0200421
v -0.0329018 0.00627613 -0.0200421
v -0.0399475 0.00761986 -0.0177114
v -0.0393906 0.0101137 -0.0177114
v -0.0257254 0.00490665 -0.021918
v -0.0253668 0.00651264 -0.021918
v -0.0112085 0.00141525 -0.0242764
v -0.0186329 0.00235367 -0.0233314
v -0.0110979 0.0021162 -0.0242764
v -0.0013876 0.00350571 -0.0247504
v -0.00415897 0.0105047 -0.0242764
v -0.00419807 0.0332308 -0.0200421
v -0.00509644 0.0403471 -0.0177114
v -0.0460205 0.0292053 -0.0117232
v -0.0504999 0.0320479 -0.00880637
v -0.0504999 0.0343658 -0.00808973
v -0.0504999 0.0164082 -0.0123854
v -0.0504999 0.0169693 -0.0122958
v -0.0435961 0.0526991 -0.00338622
v -0.0149708 0.0378122 -0.0177114
v -0.0493174 0.0232067 -0.0117232
v -0.0504999 0.0204742 -0.0117232
v -0.0504999 0.0237632 -0.0110048
v -0.0334291 0.00210285 -0.0200421
v -0.0403471 0.00509644 -0.0177114
v 0.0504999 0.0169693 -0.0122958
v 0.0504999 0.0199941 -0.011813
v 0.0334291 0.00210285 -0.0200421
v 0.0313349 0.0259228 -0.0177114
v 0.0460205 0.0292053 -0.0117232
v 0.00627613 0.0329018 -0.0200421
v 0.00328159 0.0259829 -0.021918
v 0.00419807 0.0332308 -0.0200421
v 0.0200644 0.0506773 -0.0117232
v 0.0208647 0.0526991 -0.0105279
v 0.0477629 0.0262575 -0.0117232
v 0.0179281 0.0190916 -0.021918
v 0.0128565 0.0136909 -0.0233314
v 0.0166941 0.0201797 -0.021918
v 0.0149708 0.0378122 -0.0177114
v 0.0125666 0.0386772 -0.0177114
v 0.0147343 0.0453472 -0.0149352
v 0.0352847 0.0526991 -0.00660728
v 0.0327463 0.0516005 -0.00808973
v 0.0334435 0.0526991 -0.0072641
v 0.0399475 0.00761986 -0.0177114
v 0.0468359 0.00893402 -0.0149352
v 0.0293522 0.0161362 -0.0200421
v 0.0229502 0.0126171 -0.021918
v 0.0178614 0.00580311 -0.0233314
v 0.0110979 0.0021162 -0.0242764
v 0.0109434 0.00280952 -0.0242764
v 0.0184479 0.00351906 -0.0233314
v 0.00964069 0.0243502 -0.021918
v 0.0136909 0.0128565 -0.0233314
v 0.0190916 0.0179281 -0.021918
v 0.0282803 0.0179472 -0.0200421
v 0.0164576 0.00904751 -0.0233314
v 0.0034914 0.010745 -0.0242764
v 0.0244169 0.0229292 -0.0200421
v 0.0229292 0.0244169 -0.0200421
v 0.0259228 0.0313349 -0.0177114
v 0.0196877 0.0270977 -0.0200421
v 0.0239038 0.0329008 -0.0177114
v 0.0504999 0.0463186 -0.00327665
v 0.0491924 0.046195 -0.00404902
v 0.0504999 0.0474229 -0.00274573
v 0.046195 0.0491924 -0.00404902
v 0.0494882 0.0526991 -0.000553633
v 0.0504999 0.0526991 -3.35487e-05
v 0.0347424 0.041997 -0.0117232
v 0.0430145 0.0519962 -0.00404902
v 0.0421087 0.0526991 -0.00404902
v 0.0435961 0.0526991 -0.00338622
v 0.0465265 0.0526991 -0.00197755
v 0.0181913 0.00467014 -0.0233314
v -0.00990009 0.00544262 -0.0242764
v -0.0169935 0.00799656 -0.0233314
v -0.0164576 0.00904751 -0.0233314
v -0.0021162 0.0110979 -0.0242764
v -0.00665728 0.0526991 -0.0123761
v -0.0171227 0.0526991 -0.0112254
v -0.0166504 0.0526991 -0.0112979
v -0.00299358 0.0475864 -0.0149352
v -0.0040334 0.0526991 -0.0124924
v -0.003315 0.0526991 -0.0125242
v 0.0292053 0.0460205 -0.0117232
v 0.0262575 0.0477629 -0.0117232
v 0.0289711 0.0526991 -0.00862692
v 0.029415 0.0526991 -0.0085027
v -0.0126171 0.0229502 -0.021918
v -0.0111504 0.0236969 -0.021918
v -0.0161362 0.0293522 -0.0200421
v -0.0217905 0.034337 -0.0177114
v -0.0195913 0.0356379 -0.0177114
v -0.0179472 0.0282803 -0.0200421
v -0.0100632 0.0158567 -0.0233314
v -0.0140333 0.0221128 -0.021918
v -0.0249081 0.00809288 -0.021918
v -0.0318556 0.0103502 -0.0200421
v -0.0311432 0.0123301 -0.0200421
v -0.0147343 0.0453472 -0.0149352
v 0.00164413 0.0261383 -0.021918
v 0.00370407 0.000705719 -0.0247504
v 0.00350571 0.0013876 -0.0247504
v 0.00341129 0.00160503 -0.0247504
v 0.0102224 0.00481033 -0.0242764
v -0.0261898 0 -0.021918
v -0.0261383 0.00164413 -0.021918
v -0.0112762 0.00070858 -0.0242764
v -0.0187807 0 -0.0233314
v -0.0187435 0.00117874 -0.0233314
v -0.0476809 0 -0.0149352
v -0.0504999 0 -0.0136084
v -0.0504999 0.00143615 -0.0135871
v -0.0406685 0 -0.0177114
v -0.0405874 0.00255299 -0.0177114
v -0.00370407 0.000705719 -0.0247504
v -0.00365257 0.000937462 -0.0247504
v -0.032443 0.00832939 -0.0200421
v -0.0504999 0.0156632 -0.0124832
v -0.0166941 0.0201797 -0.021918
v -0.0119715 0.0144711 -0.0233314
v 0.00181675 0.00330448 -0.0247504
v 0.00544262 0.00990009 -0.0242764
v 0.00481033 0.0102224 -0.0242764
v 0.0013876 0.00350571 -0.0247504
v -0.00467014 0.0181913 -0.0233314
v -0.000705719 0.00370407 -0.0247504
v -0.000472069 0.00374126 -0.0247504
v -0.0397329 0.0373116 -0.0117232
v -0.0473051 0.00597572 -0.0149352
v -0.0504999 0.0048253 -0.0134884
v -0.0504999 0.00637941 -0.0134195
v -0.0504999 0.0293459 -0.00956318
v -0.0504999 0.0249465 -0.0107094
v -0.0504999 0.0474229 -0.00274573
v -0.0504999 0.0526991 -3.35487e-05
v -0.0494882 0.0526991 -0.000553633
v -0.0504999 0.0447119 -0.00404902
v -0.0504999 0.0463186 -0.00327665
v -0.0352847 0.0526991 -0.00660728
v -0.0327463 0.0516005 -0.00808973
v -0.0334435 0.0526991 -0.0072641
v -0.0308894 0.0526991 -0.00808973
v -0.029415 0.0526991 -0.0085027
v -0.0289711 0.0526991 -0.00862692
v 0.0334949 0 -0.0200421
v 0.0261898 0 -0.021918
v 0.0504999 0.0427776 -0.00486109
v 0.0445509 0.0418358 -0.00808973
v 0.0504999 0.0447119 -0.00404902
v 0.0470896 0.0389557 -0.00808973
v 0 0.0476809 -0.0149352
v -0.0025565 0.0526991 -0.0125355
v 0 0.0526991 -0.0125734
v 0.00467014 0.0181913 -0.0233314
v 0.00651264 0.0253668 -0.021918
v 0.0418358 0.0445509 -0.00808973
v 0.0504999 0.0293459 -0.00956318
v 0.0504999 0.0320479 -0.00880637
v 0.00832939 0.032443 -0.0200421
v 0.0103502 0.0318556 -0.0200421
v 0.0101137 0.0393906 -0.0177114
v 0.0213499 0.0258083 -0.0200421
v 0.0153933 0.0211878 -0.021918
v 0.0385742 0.0280256 -0.0149352
v 0.0504999 0.00963295 -0.0131798
v 0.0303068 0.0142612 -0.0200421
v 0.0112085 0.00141525 -0.0242764
v 0.0112982 0 -0.0242764
v 0.0187807 0 -0.0233314
v 0.0119715 0.0144711 -0.0233314
v 0.00664043 0.00914001 -0.0242764
v 0.00823593 0.0077343 -0.0242764
v 0.0077343 0.00823593 -0.0242764
v 0.00914001 0.00664043 -0.0242764
v 0.0142612 0.0303068 -0.0200421
v 0.0111504 0.0236969 -0.021918
v 0.0123301 0.0311432 -0.0200421
v 0.00720119 0.00870514 -0.0242764
v 0.0126171 0.0229502 -0.021918
v 0.0504999 0.0392781 -0.0062537
v 0.0504999 0.0417768 -0.00528126
v 0.025548 0.0402584 -0.0149352
v 0.00365257 0.000937462 -0.0247504
v 0.00358582 0.00116444 -0.0247504
v -0.00350571 0.0013876 -0.0247504
v -0.010745 0.0034914 -0.0242764
v -0.0105047 0.00415897 -0.0242764
v -0.00181675 0.00330448 -0.0247504
v -0.00481033 0.0102224 -0.0242764
v -0.00160503 0.00341129 -0.0247504
v -0.0196877 0.0270977 -0.0200421
v -0.00832939 0.032443 -0.0200421
v 0.0025565 0.0526991 -0.0125355
v 0.0229702 0.0417833 -0.0149352
v 0.0040334 0.0526991 -0.0124924
v 0.00665728 0.0526991 -0.0123761
v -0.0239038 0.0329008 -0.0177114
v -0.0103502 0.0318556 -0.0200421
v -0.0125666 0.0386772 -0.0177114
v -0.041997 0.0347424 -0.0117232
v -0.0296459 0.0278387 -0.0177114
v -0.0347576 0.0326395 -0.0149352
v -0.0326395 0.0347576 -0.0149352
v -0.0278387 0.0296459 -0.0177114
v -0.0158567 0.0100632 -0.0233314
v -0.0151939 0.0110388 -0.0233314
v -0.0181913 0.00467014 -0.0233314
v -0.0178614 0.00580311 -0.0233314
v -0.0138765 0.0526991 -0.0117232
v -0.0281819 0.0526991 -0.00882396
v 0.00318336 0.00201988 -0.0247504
v -0.00141525 0.0112085 -0.0242764
v -0.00116444 0.00358582 -0.0247504
v -0.00070858 0.0112762 -0.0242764
v -0.000236511 0.0037632 -0.0247504
v -0.0386772 0.0125666 -0.0177114
v -0.0504999 0.0277621 -0.0100064
v -0.0477629 0.0262575 -0.0117232
v -0.0109434 0.00280952 -0.0242764
v -0.00258064 0.00274849 -0.0247504
v -0.00358582 0.00116444 -0.0247504
v 0.0504999 0.00317675 -0.0135613
v 0.0504999 0.0048253 -0.0134884
v 0.0504999 0.0237632 -0.0110048
v 0.0504999 0.0249465 -0.0107094
v 0.00210285 0.0334291 -0.0200421
v 0.0308894 0.0526991 -0.00808973
v 0.0226708 0.0526991 -0.0101333
v 0.0195913 0.0356379 -0.0177114
v 0.0173149 0.0367975 -0.0177114
v 0.0203009 0.0431433 -0.0149352
v 0.0389557 0.0470896 -0.00808973
v 0.0243502 0.00964069 -0.021918
v -0.00318336 0.00201988 -0.0247504
v 0 0.0112982 -0.0242764
v 0.039486 0.0526991 -0.00506972
v 0.011857 0.0461826 -0.0149352
v 0.00255299 0.0405874 -0.0177114
v -0.00651264 0.0253668 -0.021918
v 0.00964129 0.0526991 -0.0121565
v -0.0229292 0.0244169 -0.0200421
v -0.0259228 0.0313349 -0.0177114
v -0.0213499 0.0258083 -0.0200421
v -0.0153933 0.0211878 -0.021918
v -0.0110388 0.0151939 -0.0233314
v -0.0211878 0.0153933 -0.021918
v -0.0226708 0.0526991 -0.0101333
v 0 0.00377083 -0.0247504
v 0.0021162 0.0110979 -0.0242764
v 0.00141525 0.0112085 -0.0242764
v -0.0475864 0.00299358 -0.0149352
v -0.0504999 0.00317675 -0.0135613
v -0.0334949 0 -0.0200421
v -0.0282803 0.0179472 -0.0200421
v 0.000472069 0.00374126 -0.0247504
v -0.00201988 0.00318336 -0.0247504
v 0.00070858 0.0112762 -0.0242764
v 0.00117874 0.0187435 -0.0233314
v -0.0465265 0.0526991 -0.00197755
v 0.0504999 0.0277621 -0.0100064
v 0.0232067 0.0493174 -0.0117232
v 0.0236969 0.0111504 -0.021918
v 0.00221634 0.0030508 -0.0247504
v 0.00274849 0.00258064 -0.0247504
v 0.00258064 0.00274849 -0.0247504
v 0.00160503 0.00341129 -0.0247504
v 0.00116444 0.00358582 -0.0247504
v 0.000937462 0.00365257 -0.0247504
v 0.00280952 0.0109434 -0.0242764
v 0.00240326 0.00290489 -0.0247504
v 0.00299358 0.0475864 -0.0149352
v 0.003315 0.0526991 -0.0125242
v 0.0281819 0.0526991 -0.00882396
v 0.0175524 0.0443325 -0.0149352
v -0.00580311 0.0178614 -0.0233314
v -0.0179281 0.0190916 -0.021918
v -0.0190916 0.0179281 -0.021918
v -0.0303068 0.0142612 -0.0200421
v -0.0243502 0.00964069 -0.021918
v -0.0247981 0.0526991 -0.00966863
v 0.0030508 0.00221634 -0.0247504
v 0.00201988 0.00318336 -0.0247504
v 0.000705719 0.00370407 -0.0247504
v -0.0504999 0.00814681 -0.0132894
v -0.0184479 0.00351906 -0.0233314
v -0.0174618 0.00691319 -0.0233314
v -0.00374126 0.000472069 -0.0247504
v 0.000236511 0.0037632 -0.0247504
v 0.0359221 0.0494423 -0.00808973
v 0.0382879 0.0526991 -0.00553577
v 0.00870514 0.00720119 -0.0242764
v 0.00290489 0.00240326 -0.0247504
v 0.0138765 0.0526991 -0.0117232
v -0.00377083 0 -0.0247504
v -0.0037632 0.000236511 -0.0247504
v -0.0236969 0.0111504 -0.021918
v 0.00893402 0.0468359 -0.0149352
v 0.0100524 0.0526991 -0.0121262
v 0.0104009 0.0526991 -0.0120904
v 0.0135306 0.0526991 -0.0117686
v -0.0112982 0 -0.0242764
v 0.0247981 0.0526991 -0.00966863
v 0.0504999 0 2.85915e-07
v 0.0504999 0.0526991 2.85915e-07
v -0.0504999 0.0526991 2.85915e-07
v -0.0504999 0 2.85915e-07
f  1 2 3
f  6 4 5
f  4 6 7
f  9 11 8
f  11 9 10
f  12 14 15
f  14 12 13
f  16 7 17
f  18 19 20
f  22 24 21
f  24 22 23
f  25 26 27
f  28 29 30
f  31 32 33
f  11 35 36
f  35 11 34
f  37 38 39
f  40 42 43
f  42 40 41
f  44 45 46
f  47 48 49
f  49 51 52
f  51 49 50
f  36 35 53
f  54 55 56
f  57 58 59
f  29 60 61
f  60 29 28
f  62 63 64
f  65 66 67
f  68 69 70
f  71 38 37
f  72 1 73
f  74 75 76
f  77 78 79
f  80 81 26
f  82 83 84
f  85 86 87
f  88 89 90
f  91 92 93
f  45 94 95
f  96 97 98
f  99 100 101
f  102 103 104
f  105 106 41
f  107 75 74
f  108 63 62
f  109 111 112
f  111 109 110
f  113 114 115
f  73 1 69
f  116 117 118
f  39 2 1
f  27 26 119
f  120 80 121
f  122 48 47
f  123 124 125
f  126 127 128
f  129 130 131
f  132 129 131
f  133 134 135
f  57 136 137
f  138 64 139
f  140 7 141
f  20 40 142
f  143 122 144
f  145 65 67
f  146 147 148
f  149 143 150
f  151 152 153
f  154 139 155
f  155 139 156
f  157 108 138
f  16 158 4
f  159 36 12
f  161 8 160
f  8 161 162
f  53 13 12
f  13 53 163
f  127 164 132
f  165 117 116
f  166 131 167
f  168 169 170
f  171 173 174
f  173 171 172
f  69 175 22
f  117 176 118
f  68 179 177
f  179 68 178
f  37 39 72
f  1 3 69
f  180 89 88
f  87 181 182
f  183 184 185
f  186 187 188
f  174 189 90
f  189 174 173
f  190 177 191
f  192 43 193
f  194 195 196
f  197 82 84
f  198 159 199
f  138 62 64
f  106 155 156
f  200 109 112
f  201 202 203
f  204 205 183
f  206 207 208
f  18 209 210
f  211 212 113
f  213 214 215
f  215 216 217
f  218 215 219
f  220 221 222
f  223 224 134
f  96 150 97
f  225 122 226
f  228 160 227
f  160 228 229
f  198 199 92
f  231 158 230
f  158 231 4
f  4 231 5
f  53 232 163
f  36 53 12
f  233 137 200
f  199 12 92
f  234 235 236
f  237 238 214
f  239 70 240
f  164 241 129
f  129 241 130
f  242 171 89
f  243 118 180
f  244 245 246
f  247 197 248
f  197 247 82
f  249 116 243
f  250 251 252
f  253 254 255
f  89 171 174
f  256 257 258
f  72 73 68
f  259 72 260
f  175 261 165
f  73 69 68
f  262 121 261
f  263 74 2
f  264 265 266
f  39 1 72
f  259 37 72
f  267 113 115
f  268 250 269
f  250 268 251
f  261 121 270
f  262 271 121
f  113 272 114
f  273 172 171
f  172 273 274
f  275 276 277
f  278 279 280
f  280 282 283
f  281 280 279
f  280 281 282
f  284 123 125
f  285 286 287
f  282 281 288
f  265 107 289
f  290 291 292
f  135 149 293
f  52 51 294
f  112 295 296
f  297 298 299
f  298 297 52
f  300 302 303
f  302 300 301
f  304 194 305
f  93 58 57
f  306 307 308
f  307 93 57
f  309 307 306
f  310 311 152
f  153 304 305
f  291 102 292
f  312 313 314
f  48 315 201
f  47 49 52
f  307 57 308
f  316 98 44
f  66 317 264
f  99 193 100
f  318 319 320
f  321 237 322
f  323 324 325
f  75 318 320
f  326 327 328
f  237 329 330
f  331 222 332
f  219 215 333
f  217 60 28
f  334 158 28
f  158 334 230
f  138 108 62
f  42 335 336
f  322 214 213
f  205 337 338
f  339 340 212
f  193 336 100
f  43 336 193
f  134 341 135
f  342 293 343
f  98 97 44
f  344 36 159
f  36 344 11
f  344 8 11
f  160 229 161
f  63 160 8
f  345 346 347
f  227 348 228
f  234 236 349
f  350 35 34
f  35 350 352
f  352 350 351
f  34 353 354
f  8 162 9
f  92 12 15
f  159 12 199
f  10 34 11
f  34 10 353
f  34 354 350
f  15 355 356
f  355 15 14
f  356 357 358
f  58 360 59
f  360 58 359
f  164 129 132
f  361 362 241
f  361 241 164
f  70 21 240
f  21 70 22
f  363 279 365
f  279 363 364
f  165 261 117
f  176 242 89
f  365 279 278
f  180 88 366
f  367 368 369
f  115 370 371
f  281 372 285
f  373 243 374
f  115 371 375
f  371 244 375
f  276 185 77
f  376 375 377
f  274 378 275
f  252 379 276
f  380 176 89
f  380 89 180
f  68 239 178
f  239 68 70
f  260 167 131
f  167 260 381
f  87 86 181
f  382 262 261
f  175 165 22
f  69 3 175
f  85 67 86
f  86 264 266
f  38 2 39
f  67 383 86
f  384 67 385
f  182 37 130
f  241 182 130
f  119 26 273
f  386 387 204
f  275 277 123
f  189 123 284
f  388 251 268
f  251 388 389
f  80 390 81
f  391 392 393
f  394 387 386
f  392 211 267
f  392 267 393
f  395 392 391
f  396 366 397
f  364 397 366
f  397 364 363
f  173 123 189
f  124 277 398
f  281 287 288
f  287 281 285
f  383 264 86
f  399 400 107
f  401 402 403
f  404 405 406
f  95 297 367
f  297 368 367
f  368 297 299
f  52 294 298
f  407 307 309
f  408 48 122
f  409 367 369
f  398 410 300
f  188 411 412
f  137 136 109
f  413 93 307
f  414 415 48
f  305 194 196
f  63 8 416
f  417 419 420
f  419 417 418
f  209 421 422
f  221 322 213
f  19 105 40
f  306 308 195
f  219 333 312
f  314 16 17
f  402 423 424
f  48 201 49
f  49 203 50
f  203 49 201
f  425 112 296
f  112 111 295
f  315 200 112
f  57 59 136
f  59 426 136
f  426 59 360
f  147 427 148
f  265 399 107
f  264 399 265
f  343 293 428
f  429 134 133
f  343 430 431
f  401 207 206
f  330 345 238
f  43 42 336
f  217 28 158
f  313 217 432
f  349 434 234
f  434 349 433
f  7 234 141
f  141 227 108
f  141 434 227
f  154 138 139
f  417 64 418
f  322 237 214
f  422 106 105
f  208 290 209
f  18 210 19
f  332 435 402
f  435 423 402
f  192 193 99
f  142 43 436
f  43 142 40
f  152 311 304
f  404 151 405
f  135 341 149
f  405 153 224
f  150 144 97
f  293 149 150
f  437 402 401
f  114 370 115
f  114 272 370
f  416 8 344
f  64 63 416
f  433 227 434
f  227 433 348
f  28 30 334
f  141 234 434
f  235 7 6
f  7 235 234
f  407 413 307
f  198 92 91
f  356 355 357
f  93 92 58
f  92 15 58
f  132 128 127
f  128 132 438
f  132 439 438
f  439 132 131
f  70 69 22
f  440 23 441
f  116 118 243
f  23 116 249
f  176 27 242
f  27 119 242
f  261 270 117
f  117 27 176
f  24 23 440
f  374 169 168
f  169 374 243
f  243 180 169
f  246 316 442
f  244 187 186
f  244 246 187
f  56 245 244
f  300 410 301
f  253 376 254
f  257 443 258
f  444 247 248
f  267 115 393
f  393 376 253
f  379 185 276
f  445 446 447
f  172 274 275
f  189 284 448
f  89 174 90
f  88 90 366
f  366 90 364
f  118 380 180
f  118 176 380
f  131 259 260
f  177 72 68
f  382 261 175
f  3 382 175
f  2 449 3
f  2 74 449
f  289 263 2
f  38 289 2
f  130 259 131
f  130 37 259
f  385 85 87
f  182 181 37
f  74 76 449
f  121 25 27
f  26 269 273
f  379 204 185
f  184 211 395
f  208 209 450
f  76 146 271
f  26 268 269
f  76 271 262
f  320 146 76
f  451 430 98
f  212 272 113
f  184 338 211
f  364 281 279
f  281 364 372
f  173 172 123
f  172 275 123
f  372 448 285
f  285 452 286
f  452 285 448
f  450 209 18
f  255 377 453
f  187 442 454
f  226 52 94
f  46 45 95
f  150 143 144
f  341 455 143
f  195 137 233
f  233 200 315
f  456 188 412
f  415 315 48
f  33 414 408
f  419 159 198
f  420 419 198
f  457 458 459
f  457 420 458
f  335 407 460
f  100 461 101
f  156 420 457
f  420 156 417
f  407 458 413
f  104 154 462
f  106 154 155
f  103 17 140
f  103 140 157
f  333 217 313
f  312 333 313
f  109 463 110
f  201 425 202
f  425 201 112
f  315 112 201
f  200 137 109
f  415 233 315
f  148 390 80
f  251 386 252
f  383 66 264
f  67 66 383
f  107 318 75
f  431 430 464
f  317 399 264
f  465 466 55
f  332 402 437
f  346 467 468
f  467 346 345
f  237 330 238
f  469 329 237
f  423 219 312
f  332 222 435
f  214 238 215
f  216 60 217
f  227 160 63
f  108 227 63
f  156 139 417
f  139 64 417
f  470 157 154
f  157 141 108
f  64 416 344
f  64 344 418
f  207 291 290
f  208 207 290
f  223 134 429
f  133 135 293
f  151 153 405
f  209 422 210
f  20 19 40
f  290 292 209
f  209 292 421
f  465 471 466
f  460 407 311
f  461 311 310
f  153 305 32
f  341 33 455
f  464 430 451
f  400 318 107
f  343 428 430
f  99 101 472
f  473 98 474
f  473 464 451
f  17 7 140
f  16 4 7
f  35 232 53
f  232 35 475
f  35 352 475
f  58 358 359
f  358 58 356
f  58 15 356
f  22 165 116
f  22 116 23
f  249 373 476
f  373 249 243
f  249 441 23
f  441 249 476
f  270 121 27
f  270 27 117
f  97 45 44
f  442 46 95
f  377 244 186
f  375 244 377
f  371 56 244
f  371 370 56
f  410 447 477
f  125 398 300
f  393 115 376
f  376 115 375
f  391 393 446
f  446 393 253
f  398 79 410
f  277 79 398
f  269 274 273
f  274 269 250
f  78 395 391
f  366 170 169
f  170 366 396
f  169 180 366
f  478 262 382
f  3 478 382
f  266 265 289
f  86 266 71
f  289 107 263
f  263 107 74
f  384 145 67
f  241 87 182
f  385 67 85
f  181 86 71
f  181 71 37
f  121 80 25
f  25 80 26
f  242 273 171
f  119 273 242
f  252 204 379
f  378 252 276
f  394 479 387
f  204 183 185
f  395 211 392
f  378 276 275
f  480 389 388
f  389 480 481
f  81 268 26
f  320 147 146
f  337 482 339
f  483 484 272
f  370 485 54
f  272 485 370
f  436 43 192
f  211 113 267
f  212 340 272
f  340 483 272
f  272 484 485
f  372 189 448
f  90 372 364
f  372 90 189
f  124 398 125
f  123 277 124
f  481 486 389
f  487 409 488
f  409 487 367
f  487 411 188
f  411 487 488
f  301 489 302
f  489 301 477
f  490 255 82
f  246 442 187
f  454 95 487
f  94 52 297
f  94 297 95
f  225 226 45
f  491 33 341
f  153 32 31
f  455 408 122
f  152 304 153
f  306 195 194
f  408 414 48
f  196 195 233
f  418 159 419
f  159 418 344
f  308 57 137
f  308 137 195
f  311 309 306
f  311 407 309
f  413 198 91
f  413 91 93
f  311 306 304
f  304 306 194
f  492 457 335
f  335 457 459
f  106 156 493
f  493 457 492
f  457 493 156
f  140 141 157
f  314 17 494
f  312 314 495
f  494 17 103
f  217 158 432
f  313 16 314
f  136 463 109
f  463 136 496
f  136 426 496
f  120 148 80
f  146 148 271
f  81 388 268
f  148 497 390
f  386 204 252
f  479 498 205
f  482 340 339
f  499 471 465
f  472 101 404
f  345 347 500
f  500 60 345
f  60 500 61
f  329 467 330
f  330 467 345
f  328 467 326
f  467 328 468
f  329 326 467
f  435 501 423
f  324 321 322
f  216 345 60
f  215 217 333
f  432 158 16
f  313 432 16
f  422 104 462
f  402 424 502
f  292 102 104
f  503 222 331
f  221 218 501
f  222 501 435
f  471 504 473
f  485 484 465
f  504 464 473
f  404 101 151
f  101 152 151
f  100 336 461
f  336 335 461
f  223 405 224
f  134 31 491
f  389 486 394
f  319 147 320
f  133 293 342
f  406 405 223
f  56 55 245
f  370 54 56
f  428 150 430
f  293 150 428
f  245 316 246
f  55 316 245
f  191 177 179
f  448 506 452
f  506 448 505
f  75 320 76
f  449 478 3
f  478 76 262
f  449 76 478
f  266 289 71
f  71 289 38
f  362 87 241
f  362 385 87
f  250 252 274
f  274 252 378
f  251 389 386
f  389 394 386
f  445 78 446
f  277 276 79
f  387 205 204
f  387 479 205
f  78 391 446
f  185 184 395
f  498 337 205
f  507 388 81
f  508 480 388
f  473 451 98
f  55 473 474
f  339 212 211
f  338 339 211
f  448 125 505
f  284 125 448
f  486 479 394
f  442 95 454
f  487 95 367
f  82 509 83
f  255 453 82
f  97 225 45
f  45 226 94
f  226 47 52
f  122 47 226
f  341 143 149
f  143 455 122
f  134 491 341
f  31 33 491
f  414 233 415
f  33 408 455
f  420 198 458
f  458 198 413
f  461 460 311
f  461 335 460
f  459 458 407
f  335 459 407
f  40 105 41
f  41 106 493
f  154 157 138
f  103 157 470
f  271 120 121
f  271 148 120
f  484 499 465
f  427 497 148
f  145 66 65
f  145 317 66
f  145 399 317
f  145 400 399
f  145 318 400
f  145 319 318
f  145 147 319
f  145 427 147
f  145 497 427
f  145 508 497
f  145 480 508
f  145 481 480
f  145 486 481
f  145 479 486
f  145 498 479
f  145 337 498
f  145 482 337
f  145 340 482
f  145 483 340
f  145 484 483
f  145 499 484
f  145 471 499
f  145 504 471
f  145 464 504
f  145 431 464
f  145 343 431
f  145 342 343
f  145 133 342
f  145 429 133
f  145 223 429
f  145 406 223
f  145 404 406
f  145 472 404
f  145 99 472
f  145 192 99
f  145 436 192
f  145 142 436
f  145 20 142
f  145 18 20
f  145 450 18
f  145 208 450
f  145 206 208
f  145 401 206
f  145 437 401
f  145 332 437
f  145 331 332
f  145 503 331
f  145 511 503
f  511 145 510
f  321 469 237
f  423 218 219
f  501 218 423
f  215 238 216
f  238 345 216
f  292 104 421
f  421 104 422
f  462 154 106
f  422 462 106
f  512 314 494
f  102 494 103
f  403 502 291
f  402 502 403
f  325 322 221
f  511 323 503
f  101 310 152
f  101 461 310
f  224 153 31
f  224 31 134
f  485 465 54
f  54 465 55
f  430 96 98
f  430 150 96
f  442 44 46
f  316 44 442
f  439 131 166
f  260 72 177
f  260 190 381
f  190 260 177
f  125 300 505
f  505 256 506
f  256 505 257
f  79 78 445
f  276 77 79
f  205 338 184
f  183 205 184
f  390 507 81
f  390 497 507
f  466 471 473
f  466 473 55
f  474 98 316
f  55 474 316
f  338 337 339
f  188 454 487
f  187 454 188
f  447 247 477
f  513 515 453
f  515 513 514
f  446 253 447
f  447 490 247
f  376 377 254
f  254 377 255
f  377 513 453
f  377 186 513
f  144 225 97
f  144 122 225
f  305 196 32
f  32 196 33
f  33 196 414
f  196 233 414
f  41 492 42
f  492 41 493
f  42 492 335
f  210 105 19
f  210 422 105
f  104 470 154
f  104 103 470
f  221 213 218
f  213 215 218
f  512 494 102
f  291 512 102
f  401 403 207
f  403 291 207
f  502 495 291
f  502 312 495
f  323 325 221
f  222 221 501
f  503 220 222
f  324 322 325
f  505 300 257
f  257 303 443
f  303 257 300
f  77 185 78
f  185 395 78
f  507 508 388
f  497 508 507
f  453 509 82
f  509 453 516
f  453 515 516
f  301 410 477
f  490 82 247
f  79 445 410
f  410 445 447
f  186 188 513
f  513 456 514
f  456 513 188
f  423 312 424
f  424 312 502
f  495 314 512
f  291 495 512
f  510 323 511
f  517 324 323
f  447 253 490
f  253 255 490
f  477 444 518
f  444 477 247
f  489 477 518
f  510 517 323
f  503 323 220
f  323 221 220
f  520 280 283
f  519 280 520
f  280 519 278
f  278 519 365
f  365 519 363
f  363 519 397
f  397 519 396
f  396 519 170
f  170 519 168
f  168 519 374
f  374 519 373
f  373 519 476
f  476 519 441
f  441 519 440
f  440 519 24
f  24 519 21
f  21 519 240
f  240 519 239
f  239 519 178
f  178 519 179
f  179 519 191
f  191 519 190
f  190 519 381
f  381 519 167
f  167 519 166
f  166 519 439
f  439 519 438
f  438 519 128
f  128 519 126
f  521 519 520
f  519 521 522
f  350 521 351
f  522 350 354
f  522 354 353
f  522 353 10
f  522 10 9
f  522 9 162
f  522 162 161
f  522 161 229
f  522 229 228
f  522 228 348
f  522 348 433
f  522 433 349
f  522 349 236
f  522 236 235
f  522 235 6
f  522 6 5
f  522 5 231
f  522 231 230
f  522 230 334
f  522 334 30
f  522 30 29
f  522 29 61
f  522 61 500
f  522 500 347
f  522 347 346
f  522 346 468
f  522 468 328
f  522 328 327
f  350 522 521
f  282 520 283
f  288 520 282
f  520 288 521
f  521 352 351
f  475 521 288
f  521 475 352
f  452 288 287
f  288 452 475
f  452 287 286
f  13 475 452
f  475 13 232
f  232 13 163
f  506 13 452
f  506 14 13
f  256 14 506
f  256 355 14
f  489 256 258
f  256 489 355
f  303 258 443
f  489 258 303
f  426 355 489
f  357 359 358
f  489 303 302
f  355 426 357
f  357 426 359
f  359 426 360
f  518 426 489
f  518 496 426
f  444 496 518
f  444 463 496
f  248 463 444
f  248 110 463
f  197 110 248
f  197 111 110
f  83 197 84
f  197 83 111
f  515 111 83
f  111 296 295
f  515 83 509
f  111 515 296
f  515 509 516
f  203 296 515
f  296 203 425
f  425 203 202
f  456 515 514
f  515 456 203
f  51 203 456
f  203 51 50
f  412 51 456
f  412 294 51
f  411 294 412
f  411 298 294
f  409 411 488
f  411 409 298
f  368 298 409
f  298 368 299
f  368 409 369
f  326 522 327
f  469 522 329
f  522 326 329
f  321 522 469
f  127 519 164
f  519 127 126
f  324 522 321
f  519 361 164
f  517 522 324
f  519 362 361
f  510 522 517
f  519 385 362
f  522 510 519
f  519 384 385
f  145 519 510
f  519 145 384
