# OpenSCAD obj exporter
v -0.011857 -0.0461826 -0.0149352
v -0.0147343 -0.0453472 -0.0149352
v -0.0101137 -0.0393906 -0.0177114
v -0.0494423 -0.0359221 -0.00808973
v -0.0504999 -0.0343658 -0.00808973
v -0.0504999 -0.0320479 -0.00880637
v -0.0460205 -0.0292053 -0.0117232
v 0.0174618 -0.00691319 -0.0233314
v 0.010745 -0.0034914 -0.0242764
v 0.0178614 -0.00580311 -0.0233314
v -0.0421087 -0.0526991 -0.00404902
v -0.0435961 -0.0526991 -0.00338622
v -0.0430145 -0.0519962 -0.00404902
v 0.046195 -0.0491924 -0.00404902
v 0.0418358 -0.0445509 -0.00808973
v 0.0445509 -0.0418358 -0.00808973
v 0.0491924 -0.046195 -0.00404902
v 0.0136909 -0.0128565 -0.0233314
v 0.00823593 -0.0077343 -0.0242764
v 0.0144711 -0.0119715 -0.0233314
v 0.0470896 -0.0389557 -0.00808973
v 0.044096 -0.0320368 -0.0117232
v 0.0494423 -0.0359221 -0.00808973
v 0.0504999 -0.0237632 -0.0110048
v 0.0493174 -0.0232067 -0.0117232
v 0.0504999 -0.0204742 -0.0117232
v 0.00070858 -0.0112762 -0.0242764
v 0.000472069 -0.00374126 -0.0247504
v 0.00141525 -0.0112085 -0.0242764
v 0.0293522 -0.0161362 -0.0200421
v 0.0221128 -0.0140333 -0.021918
v 0.0229502 -0.0126171 -0.021918
v 0.00832939 -0.032443 -0.0200421
v 0.00809288 -0.0249081 -0.021918
v 0.0103502 -0.0318556 -0.0200421
v -0.0443325 -0.0175524 -0.0149352
v -0.0504999 -0.0199941 -0.011813
v -0.0504999 -0.0169693 -0.0122958
v 0.00164413 -0.0261383 -0.021918
v 0.00117874 -0.0187435 -0.0233314
v 0.00235367 -0.0186329 -0.0233314
v -0.00964129 -0.0526991 -0.0121565
v -0.0100524 -0.0526991 -0.0121262
v -0.00893402 -0.0468359 -0.0149352
v -0.00597572 -0.0473051 -0.0149352
v -0.0445509 -0.0418358 -0.00808973
v -0.0470896 -0.0389557 -0.00808973
v -0.0397329 -0.0373116 -0.0117232
v -0.00419807 -0.0332308 -0.0200421
v -0.00627613 -0.0329018 -0.0200421
v -0.00328159 -0.0259829 -0.021918
v 0.0077343 -0.00823593 -0.0242764
v 0.00240326 -0.00290489 -0.0247504
v 0.00258064 -0.00274849 -0.0247504
v -0.00141525 -0.0112085 -0.0242764
v -0.0021162 -0.0110979 -0.0242764
v -0.000472069 -0.00374126 -0.0247504
v 0.0473051 -0.00597572 -0.0149352
v 0.0403471 -0.00509644 -0.0177114
v 0.0405874 -0.00255299 -0.0177114
v 0.0021162 -0.0110979 -0.0242764
v -0.0013876 -0.00350571 -0.0247504
v -0.00481033 -0.0102224 -0.0242764
v -0.00160503 -0.00341129 -0.0247504
v 0.00605392 -0.0095396 -0.0242764
v 0.00181675 -0.00330448 -0.0247504
v 0.00201988 -0.00318336 -0.0247504
v -0.0175524 -0.0443325 -0.0149352
v -0.0203009 -0.0431433 -0.0149352
v -0.0149708 -0.0378122 -0.0177114
v 0.00351906 -0.0184479 -0.0233314
v 0.00280952 -0.0109434 -0.0242764
v -0.00370407 -0.000705719 -0.0247504
v -0.0110979 -0.0021162 -0.0242764
v -0.00374126 -0.000472069 -0.0247504
v -0.0453472 -0.0147343 -0.0149352
v -0.0461826 -0.011857 -0.0149352
v -0.0393906 -0.0101137 -0.0177114
v -0.0347576 -0.0326395 -0.0149352
v -0.0367384 -0.0303926 -0.0149352
v -0.0296459 -0.0278387 -0.0177114
v 0.0169935 -0.00799656 -0.0233314
v 0.0236969 -0.0111504 -0.021918
v 0 -0.0187807 -0.0233314
v 0 -0.0112982 -0.0242764
v -0.0282803 -0.0179472 -0.0200421
v -0.0293522 -0.0161362 -0.0200421
v -0.0221128 -0.0140333 -0.021918
v 0.0239038 -0.0329008 -0.0177114
v 0.0196877 -0.0270977 -0.0200421
v 0.0259228 -0.0313349 -0.0177114
v 0.0504999 -0.0427776 -0.00486109
v 0.0504999 -0.0447119 -0.00404902
v 0.0186329 -0.00235367 -0.0233314
v 0.0112762 -0.00070858 -0.0242764
v 0.0187435 -0.00117874 -0.0233314
v 0.0257254 -0.00490665 -0.021918
v 0.0259829 -0.00328159 -0.021918
v 0.0311432 -0.0123301 -0.0200421
v 0.0243502 -0.00964069 -0.021918
v -0.00290489 -0.00240326 -0.0247504
v -0.00870514 -0.00720119 -0.0242764
v -0.0030508 -0.00221634 -0.0247504
v 0.0211878 -0.0153933 -0.021918
v 0.0151939 -0.0110388 -0.0233314
v -0.00070858 -0.0112762 -0.0242764
v -0.00235367 -0.0186329 -0.0233314
v 0.0184479 -0.00351906 -0.0233314
v 0.0109434 -0.00280952 -0.0242764
v 0.0110979 -0.0021162 -0.0242764
v 0.0468359 -0.00893402 -0.0149352
v 0.0399475 -0.00761986 -0.0177114
v -0.0504999 -0.0293459 -0.00956318
v -0.0504999 -0.0277621 -0.0100064
v -0.0477629 -0.0262575 -0.0117232
v 0 -0.00377083 -0.0247504
v -0.0473051 -0.00597572 -0.0149352
v -0.0504999 -0.0048253 -0.0134884
v -0.0504999 -0.00317675 -0.0135613
v -0.0475864 -0.00299358 -0.0149352
v -0.0476809 0 -0.0149352
v -0.0504999 -0.00143615 -0.0135871
v -0.0504999 0 -0.0136084
v -0.0347424 -0.041997 -0.0117232
v -0.0389557 -0.0470896 -0.00808973
v -0.0373116 -0.0397329 -0.0117232
v 0.0171227 -0.0526991 -0.0112254
v 0.0166504 -0.0526991 -0.0112979
v 0.0168428 -0.0518379 -0.0117232
v -0.0504999 -0.0427776 -0.00486109
v -0.0504999 -0.0417768 -0.00528126
v -0.00490665 -0.0257254 -0.021918
v -0.00210285 -0.0334291 -0.0200421
v -0.00164413 -0.0261383 -0.021918
v -0.044096 -0.0320368 -0.0117232
v 0.0460205 -0.0292053 -0.0117232
v 0.0504999 -0.0320479 -0.00880637
v 0.0504999 -0.0343658 -0.00808973
v 0.0465265 -0.0526991 -0.00197755
v 0.0494882 -0.0526991 -0.000553633
v 0.0475864 -0.00299358 -0.0149352
v 0.0406685 0 -0.0177114
v 0.0476809 0 -0.0149352
v -0.0418358 -0.0445509 -0.00808973
v 0.0213499 -0.0258083 -0.0200421
v 0.0135306 -0.0526991 -0.0117686
v 0.0104009 -0.0526991 -0.0120904
v 0.011857 -0.0461826 -0.0149352
v 0.00210285 -0.0334291 -0.0200421
v 0 -0.0261898 -0.021918
v 0.0179281 -0.0190916 -0.021918
v 0.0128565 -0.0136909 -0.0233314
v 0.0190916 -0.0179281 -0.021918
v 0.0201797 -0.0166941 -0.021918
v 0.0037632 -0.000236511 -0.0247504
v 0.00377083 0 -0.0247504
v 0.000705719 -0.00370407 -0.0247504
v 0.00964069 -0.0243502 -0.021918
v 0.00799656 -0.0169935 -0.0233314
v 0.0111504 -0.0236969 -0.021918
v -0.00605392 -0.0095396 -0.0242764
v -0.00664043 -0.00914001 -0.0242764
v -0.00221634 -0.0030508 -0.0247504
v -0.00415897 -0.0105047 -0.0242764
v -0.00181675 -0.00330448 -0.0247504
v -0.0504999 -0.0164082 -0.0123854
v -0.0504999 -0.0249465 -0.0107094
v -0.0493174 -0.0232067 -0.0117232
v -0.0504999 -0.0237632 -0.0110048
v -0.0504999 -0.0204742 -0.0117232
v -0.0406685 0 -0.0177114
v -0.0166941 -0.0201797 -0.021918
v -0.0229292 -0.0244169 -0.0200421
v -0.0179281 -0.0190916 -0.021918
v -0.0213499 -0.0258083 -0.0200421
v -0.0259228 -0.0313349 -0.0177114
v -0.00651264 -0.0253668 -0.021918
v -0.00832939 -0.032443 -0.0200421
v -0.00809288 -0.0249081 -0.021918
v 0.0173149 -0.0367975 -0.0177114
v 0.0161362 -0.0293522 -0.0200421
v 0.0195913 -0.0356379 -0.0177114
v 0.0125666 -0.0386772 -0.0177114
v 0.0101137 -0.0393906 -0.0177114
v -0.00544262 -0.00990009 -0.0242764
v -0.0125666 -0.0386772 -0.0177114
v -0.0103502 -0.0318556 -0.0200421
v -0.0504999 -0.0200699 -0.0117989
v -0.0431433 -0.0203009 -0.0149352
v 0.0504999 -0.0474229 -0.00274573
v 0.0504999 -0.0463186 -0.00327665
v 0.0378122 -0.0149708 -0.0177114
v 0.0318556 -0.0103502 -0.0200421
v 0.0504999 -0.0249465 -0.0107094
v 0.032443 -0.00832939 -0.0200421
v 0.0249081 -0.00809288 -0.021918
v 0.0253668 -0.00651264 -0.021918
v 0.0504999 -0.00317675 -0.0135613
v 0.0504999 -0.00143615 -0.0135871
v 0.0334291 -0.00210285 -0.0200421
v 0.0261383 -0.00164413 -0.021918
v 0.0261898 0 -0.021918
v 0.0229292 -0.0244169 -0.0200421
v 0.0149708 -0.0378122 -0.0177114
v 0.0303068 -0.0142612 -0.0200421
v 0.0373116 -0.0397329 -0.0117232
v 0.0303926 -0.0367384 -0.0149352
v 0.0326395 -0.0347576 -0.0149352
v 0.0100632 -0.0158567 -0.0233314
v 0.0110388 -0.0151939 -0.0233314
v 0.0123301 -0.0311432 -0.0200421
v 0.0142612 -0.0303068 -0.0200421
v 0.0181913 -0.00467014 -0.0233314
v 0.0278387 -0.0296459 -0.0177114
v 0.0296459 -0.0278387 -0.0177114
v 0.0347576 -0.0326395 -0.0149352
v 0.0140333 -0.0221128 -0.021918
v 0.0153933 -0.0211878 -0.021918
v 0.00365257 -0.000937462 -0.0247504
v 0.0034914 -0.010745 -0.0242764
v 0.0013876 -0.00350571 -0.0247504
v 0.00415897 -0.0105047 -0.0242764
v 0.000937462 -0.00365257 -0.0247504
v 0.00370407 -0.000705719 -0.0247504
v 0.00255299 -0.0405874 -0.0177114
v 0.00509644 -0.0403471 -0.0177114
v 0.00467014 -0.0181913 -0.0233314
v 0.00580311 -0.0178614 -0.0233314
v 0.00116444 -0.00358582 -0.0247504
v 0.000236511 -0.0037632 -0.0247504
v -0.000705719 -0.00370407 -0.0247504
v 0.00358582 -0.00116444 -0.0247504
v 0.00350571 -0.0013876 -0.0247504
v 0.00914001 -0.00664043 -0.0242764
v 0.0095396 -0.00605392 -0.0242764
v -0.0417833 -0.0229702 -0.0149352
v -0.0504999 -0.00637941 -0.0134195
v -0.0326395 -0.0347576 -0.0149352
v -0.0278387 -0.0296459 -0.0177114
v -0.0405874 -0.00255299 -0.0177114
v -0.0403471 -0.00509644 -0.0177114
v -0.0109434 -0.00280952 -0.0242764
v -0.00365257 -0.000937462 -0.0247504
v -0.0332308 -0.00419807 -0.0200421
v -0.0334291 -0.00210285 -0.0200421
v -0.00240326 -0.00290489 -0.0247504
v -0.0077343 -0.00823593 -0.0242764
v -0.00258064 -0.00274849 -0.0247504
v -0.00720119 -0.00870514 -0.0242764
v -0.0166504 -0.0526991 -0.0112979
v -0.0168428 -0.0518379 -0.0117232
v -0.0138765 -0.0526991 -0.0117232
v 0.00419807 -0.0332308 -0.0200421
v 0.00627613 -0.0329018 -0.0200421
v -0.00761986 -0.0399475 -0.0177114
v 0.0147343 -0.0453472 -0.0149352
v 0.0175524 -0.0443325 -0.0149352
v -0.0465265 -0.0526991 -0.00197755
v -0.046195 -0.0491924 -0.00404902
v -0.0280256 -0.0385742 -0.0149352
v -0.0320368 -0.044096 -0.0117232
v -0.0303926 -0.0367384 -0.0149352
v -0.0200644 -0.0506773 -0.0117232
v -0.0232067 -0.0493174 -0.0117232
v -0.0504999 -0.0392781 -0.0062537
v -0.0504999 -0.0366904 -0.00726035
v -0.0140333 -0.0221128 -0.021918
v -0.0153933 -0.0211878 -0.021918
v -0.0110388 -0.0151939 -0.0233314
v 0.00328159 -0.0259829 -0.021918
v 0.00490665 -0.0257254 -0.021918
v 0 -0.0406685 -0.0177114
v -0.0270977 -0.0196877 -0.0200421
v 0.0367975 -0.0173149 -0.0177114
v 0.0334949 0 -0.0200421
v 0.0435961 -0.0526991 -0.00338622
v 0.0430145 -0.0519962 -0.00404902
v 0.0329018 -0.00627613 -0.0200421
v 0.0332308 -0.00419807 -0.0200421
v 0.0320368 -0.044096 -0.0117232
v 0.0280256 -0.0385742 -0.0149352
v 0.0179472 -0.0282803 -0.0200421
v 0.0504999 -0.0417768 -0.00528126
v 0.0292053 -0.0460205 -0.0117232
v 0.025548 -0.0402584 -0.0149352
v 0.041997 -0.0347424 -0.0117232
v 0.0367384 -0.0303926 -0.0149352
v 0.0126171 -0.0229502 -0.021918
v 0.00904751 -0.0164576 -0.0233314
v 0.0166941 -0.0201797 -0.021918
v 0.0119715 -0.0144711 -0.0233314
v 0.0397329 -0.0373116 -0.0117232
v 0.0270977 -0.0196877 -0.0200421
v 0.0385742 -0.0280256 -0.0149352
v 0.0329008 -0.0239038 -0.0177114
v 0.0402584 -0.025548 -0.0149352
v 0.034337 -0.0217905 -0.0177114
v 0.0217905 -0.034337 -0.0177114
v 0.00651264 -0.0253668 -0.021918
v 0.00374126 -0.000472069 -0.0247504
v 0.0102224 -0.00481033 -0.0242764
v 0.00330448 -0.00181675 -0.0247504
v 0.00341129 -0.00160503 -0.0247504
v -0.0119715 -0.0144711 -0.0233314
v 0 -0.0334949 -0.0200421
v -0.00964069 -0.0243502 -0.021918
v -0.00691319 -0.0174618 -0.0233314
v -0.0034914 -0.010745 -0.0242764
v 0.00691319 -0.0174618 -0.0233314
v -0.00201988 -0.00318336 -0.0247504
v -0.0128565 -0.0136909 -0.0233314
v -0.0136909 -0.0128565 -0.0233314
v -0.00823593 -0.0077343 -0.0242764
v 0.00664043 -0.00914001 -0.0242764
v -0.0504999 -0.0108923 -0.0130505
v -0.0504999 -0.00963295 -0.0131798
v -0.0468359 -0.00893402 -0.0149352
v -0.0504999 -0.0129658 -0.0128373
v -0.0329018 -0.00627613 -0.0200421
v -0.0259829 -0.00328159 -0.021918
v -0.0257254 -0.00490665 -0.021918
v -0.0186329 -0.00235367 -0.0233314
v -0.0190916 -0.0179281 -0.021918
v -0.0201797 -0.0166941 -0.021918
v -0.0112762 -0.00070858 -0.0242764
v -0.0037632 -0.000236511 -0.0247504
v 0.00274849 -0.00258064 -0.0247504
v 0.00290489 -0.00240326 -0.0247504
v 0.00221634 -0.0030508 -0.0247504
v 0.00720119 -0.00870514 -0.0242764
v -0.00116444 -0.00358582 -0.0247504
v -0.0104009 -0.0526991 -0.0120904
v -0.0135306 -0.0526991 -0.0117686
v -0.0161362 -0.0293522 -0.0200421
v -0.0179472 -0.0282803 -0.0200421
v -0.0178197 -0.0526991 -0.0110955
v -0.0208647 -0.0526991 -0.0105279
v 0.0138765 -0.0526991 -0.0117232
v 0.0025565 -0.0526991 -0.0125355
v 0 -0.0476809 -0.0149352
v 0.00299358 -0.0475864 -0.0149352
v 0.003315 -0.0526991 -0.0125242
v -0.0025565 -0.0526991 -0.0125355
v -0.003315 -0.0526991 -0.0125242
v -0.00299358 -0.0475864 -0.0149352
v -0.0292053 -0.0460205 -0.0117232
v -0.025548 -0.0402584 -0.0149352
v -0.0491924 -0.046195 -0.00404902
v -0.0504999 -0.0474229 -0.00274573
v -0.0504999 -0.0463186 -0.00327665
v -0.0504999 -0.0447119 -0.00404902
v -0.0359221 -0.0494423 -0.00808973
v -0.0334435 -0.0526991 -0.0072641
v -0.0352847 -0.0526991 -0.00660728
v -0.0327463 -0.0516005 -0.00808973
v -0.0229702 -0.0417833 -0.0149352
v -0.00799656 -0.0169935 -0.0233314
v -0.0142612 -0.0303068 -0.0200421
v -0.0173149 -0.0367975 -0.0177114
v -0.0195913 -0.0356379 -0.0177114
v -0.0217905 -0.034337 -0.0177114
v 0.0504999 -0.0277621 -0.0100064
v 0.0477629 -0.0262575 -0.0117232
v 0.0504999 -0.00814681 -0.0132894
v 0.0504999 -0.00637941 -0.0134195
v 0.0431433 -0.0203009 -0.0149352
v 0.0504999 -0.0200699 -0.0117989
v 0.0393906 -0.0101137 -0.0177114
v 0.0504999 -0.0048253 -0.0134884
v 0.0356379 -0.0195913 -0.0177114
v 0.0187807 0 -0.0233314
v 0.0112982 0 -0.0242764
v 0.00481033 -0.0102224 -0.0242764
v 0.0200644 -0.0506773 -0.0117232
v 0.0347424 -0.041997 -0.0117232
v 0.0421087 -0.0526991 -0.00404902
v 0.0334435 -0.0526991 -0.0072641
v 0.0327463 -0.0516005 -0.00808973
v 0.0352847 -0.0526991 -0.00660728
v 0.0308894 -0.0526991 -0.00808973
v 0.0504999 -0.0293459 -0.00956318
v 0.0504999 -0.0392781 -0.0062537
v 0.0504999 -0.0366904 -0.00726035
v 0.0313349 -0.0259228 -0.0177114
v 0.0258083 -0.0213499 -0.0200421
v 0.0105047 -0.00415897 -0.0242764
v 0.0443325 -0.0175524 -0.0149352
v 0.0504999 -0.0199941 -0.011813
v 0.0282803 -0.0179472 -0.0200421
v 0.0244169 -0.0229292 -0.0200421
v -0.00351906 -0.0184479 -0.0233314
v -0.00467014 -0.0181913 -0.0233314
v -0.00280952 -0.0109434 -0.0242764
v 0.0112085 -0.00141525 -0.0242764
v -0.00274849 -0.00258064 -0.0247504
v 0.0203009 -0.0431433 -0.0149352
v -0.0144711 -0.0119715 -0.0233314
v -0.0187807 0 -0.0233314
v -0.0112982 0 -0.0242764
v -0.000236511 -0.0037632 -0.0247504
v -0.0100632 -0.0158567 -0.0233314
v -0.0102224 -0.00481033 -0.0242764
v -0.0105047 -0.00415897 -0.0242764
v -0.00350571 -0.0013876 -0.0247504
v -0.0095396 -0.00605392 -0.0242764
v -0.00318336 -0.00201988 -0.0247504
v -0.0244169 -0.0229292 -0.0200421
v -0.0313349 -0.0259228 -0.0177114
v -0.0399475 -0.00761986 -0.0177114
v -0.0504999 -0.00814681 -0.0132894
v -0.0504999 -0.0156632 -0.0124832
v -0.0258083 -0.0213499 -0.0200421
v -0.0311432 -0.0123301 -0.0200421
v -0.0378122 -0.0149708 -0.0177114
v -0.0318556 -0.0103502 -0.0200421
v -0.0236969 -0.0111504 -0.021918
v -0.0243502 -0.00964069 -0.021918
v -0.0356379 -0.0195913 -0.0177114
v -0.0181913 -0.00467014 -0.0233314
v -0.0184479 -0.00351906 -0.0233314
v -0.0261383 -0.00164413 -0.021918
v -0.0174618 -0.00691319 -0.0233314
v -0.0249081 -0.00809288 -0.021918
v -0.0178614 -0.00580311 -0.0233314
v -0.010745 -0.0034914 -0.0242764
v -0.00377083 0 -0.0247504
v 0.0281819 -0.0526991 -0.00882396
v 0.0232067 -0.0493174 -0.0117232
v 0.0262575 -0.0477629 -0.0117232
v 0.0289711 -0.0526991 -0.00862692
v 0.00597572 -0.0473051 -0.0149352
v 0.00761986 -0.0399475 -0.0177114
v -0.00509644 -0.0403471 -0.0177114
v 0.0229702 -0.0417833 -0.0149352
v -0.0494882 -0.0526991 -0.000553633
v -0.0247981 -0.0526991 -0.00966863
v -0.0281819 -0.0526991 -0.00882396
v -0.041997 -0.0347424 -0.0117232
v -0.0171227 -0.0526991 -0.0112254
v -0.0123301 -0.0311432 -0.0200421
v -0.0196877 -0.0270977 -0.0200421
v -0.0126171 -0.0229502 -0.021918
v -0.00580311 -0.0178614 -0.0233314
v -0.0289711 -0.0526991 -0.00862692
v -0.0262575 -0.0477629 -0.0117232
v -0.0382879 -0.0526991 -0.00553577
v 0.0504999 -0.0156632 -0.0124832
v 0.0461826 -0.011857 -0.0149352
v 0.0504999 -0.0129658 -0.0128373
v 0.0417833 -0.0229702 -0.0149352
v 0.0504999 -0.00963295 -0.0131798
v 0.0030508 -0.00221634 -0.0247504
v 0.039486 -0.0526991 -0.00506972
v 0.0389557 -0.0470896 -0.00808973
v 0.0359221 -0.0494423 -0.00808973
v 0.0382879 -0.0526991 -0.00553577
v 0.00870514 -0.00720119 -0.0242764
v 0.0453472 -0.0147343 -0.0149352
v 0.0386772 -0.0125666 -0.0177114
v 0.0164576 -0.00904751 -0.0233314
v 0.00990009 -0.00544262 -0.0242764
v 0.0158567 -0.0100632 -0.0233314
v -0.00341129 -0.00160503 -0.0247504
v -0.000937462 -0.00365257 -0.0247504
v 0.00665728 -0.0526991 -0.0123761
v 0.0040334 -0.0526991 -0.0124924
v -0.0112085 -0.00141525 -0.0242764
v -0.0169935 -0.00799656 -0.0233314
v -0.00330448 -0.00181675 -0.0247504
v -0.0111504 -0.0236969 -0.021918
v -0.0367975 -0.0173149 -0.0177114
v -0.0211878 -0.0153933 -0.021918
v 0.00544262 -0.00990009 -0.0242764
v -0.00117874 -0.0187435 -0.0233314
v -0.0402584 -0.025548 -0.0149352
v -0.0334949 0 -0.0200421
v -0.032443 -0.00832939 -0.0200421
v -0.0253668 -0.00651264 -0.021918
v -0.0261898 0 -0.021918
v -0.00990009 -0.00544262 -0.0242764
v 0.029415 -0.0526991 -0.0085027
v 0 -0.0526991 -0.0125734
v -0.0040334 -0.0526991 -0.0124924
v -0.00255299 -0.0405874 -0.0177114
v -0.00665728 -0.0526991 -0.0123761
v -0.0239038 -0.0329008 -0.0177114
v -0.039486 -0.0526991 -0.00506972
v 0.0504999 -0.0108923 -0.0130505
v 0.0504999 0 -0.0136084
v 0.0226708 -0.0526991 -0.0101333
v 0.0247981 -0.0526991 -0.00966863
v 0.0504999 -0.0526991 -3.35487e-05
v 0.00318336 -0.00201988 -0.0247504
v 0.0504999 -0.0164082 -0.0123854
v 0.00893402 -0.0468359 -0.0149352
v 0.00964129 -0.0526991 -0.0121565
v 0.0100524 -0.0526991 -0.0121262
v -0.0229502 -0.0126171 -0.021918
v -0.0386772 -0.0125666 -0.0177114
v -0.0151939 -0.0110388 -0.0233314
v -0.034337 -0.0217905 -0.0177114
v -0.0385742 -0.0280256 -0.0149352
v -0.0329008 -0.0239038 -0.0177114
v -0.00358582 -0.00116444 -0.0247504
v 0.0178197 -0.0526991 -0.0110955
v -0.0504999 -0.0526991 -3.35487e-05
v -0.029415 -0.0526991 -0.0085027
v 0.0504999 -0.0169693 -0.0122958
v -0.0158567 -0.0100632 -0.0233314
v -0.0164576 -0.00904751 -0.0233314
v 0.00160503 -0.00341129 -0.0247504
v -0.00904751 -0.0164576 -0.0233314
v -0.0303068 -0.0142612 -0.0200421
v -0.0187435 -0.00117874 -0.0233314
v -0.0226708 -0.0526991 -0.0101333
v -0.00914001 -0.00664043 -0.0242764
v 0.0208647 -0.0526991 -0.0105279
v -0.0308894 -0.0526991 -0.00808973
v 0.0504999 -0.0526991 2.85915e-07
v 0.0504999 0 2.85915e-07
v -0.0504999 0 2.85915e-07
v -0.0504999 -0.0526991 2.85915e-07
f  1 2 3
f  6 4 5
f  4 6 7
f  8 9 10
f  11 12 13
f  14 16 17
f  16 14 15
f  18 19 20
f  21 22 23
f  24 25 26
f  27 28 29
f  30 31 32
f  33 34 35
f  36 37 38
f  39 40 41
f  42 44 45
f  44 42 43
f  46 47 48
f  49 50 51
f  52 53 54
f  55 56 57
f  58 59 60
f  29 28 61
f  62 63 64
f  65 66 67
f  68 69 70
f  71 61 72
f  73 74 75
f  76 77 78
f  79 80 81
f  32 82 83
f  27 84 85
f  86 87 88
f  89 90 91
f  17 92 93
f  92 17 16
f  94 95 96
f  97 94 98
f  99 83 100
f  101 102 103
f  104 105 31
f  106 107 55
f  108 109 110
f  111 112 58
f  113 115 7
f  115 113 114
f  85 106 116
f  118 120 117
f  120 118 119
f  121 122 123
f  124 125 126
f  127 128 129
f  131 46 130
f  46 131 47
f  51 50 132
f  133 49 134
f  135 4 7
f  23 137 138
f  137 23 136
f  139 14 140
f  141 142 143
f  125 13 144
f  91 90 145
f  146 147 148
f  149 150 39
f  151 18 153
f  18 151 152
f  154 20 105
f  95 155 156
f  61 28 157
f  41 29 61
f  158 159 160
f  161 162 163
f  164 63 62
f  106 55 57
f  64 63 165
f  38 76 36
f  76 38 166
f  167 115 114
f  115 167 168
f  168 169 170
f  120 121 171
f  172 173 174
f  175 176 173
f  177 178 179
f  134 49 51
f  180 181 182
f  183 184 35
f  63 185 165
f  186 70 187
f  2 70 186
f  170 189 168
f  189 170 188
f  190 17 191
f  192 99 193
f  194 25 24
f  195 196 197
f  141 199 198
f  199 141 143
f  200 201 202
f  91 145 203
f  183 35 204
f  205 32 83
f  206 207 208
f  209 65 210
f  211 160 212
f  196 213 197
f  153 18 154
f  208 215 216
f  215 208 214
f  217 210 218
f  180 211 212
f  109 219 110
f  220 221 222
f  108 110 94
f  61 223 72
f  110 219 224
f  225 149 226
f  41 61 71
f  71 72 227
f  34 227 228
f  220 229 221
f  27 116 230
f  57 56 231
f  9 232 219
f  9 233 232
f  105 234 235
f  7 6 113
f  236 168 189
f  117 237 118
f  238 81 239
f  81 238 79
f  117 120 240
f  241 117 240
f  242 74 243
f  244 241 245
f  246 247 248
f  163 249 246
f  250 251 252
f  226 253 254
f  45 44 255
f  129 256 257
f  12 259 13
f  259 12 258
f  260 261 262
f  263 264 69
f  266 47 265
f  47 266 4
f  267 268 269
f  254 270 271
f  225 272 149
f  150 133 134
f  273 86 88
f  23 22 136
f  141 60 142
f  274 99 192
f  142 200 275
f  200 202 275
f  276 14 139
f  14 276 277
f  278 98 279
f  213 109 108
f  280 281 207
f  181 217 282
f  16 283 92
f  283 16 21
f  284 285 280
f  286 287 22
f  207 89 91
f  288 159 289
f  290 210 291
f  196 8 10
f  99 100 196
f  206 216 292
f  216 206 208
f  293 154 104
f  294 295 296
f  295 293 297
f  182 181 298
f  282 217 90
f  35 34 211
f  33 299 34
f  27 85 116
f  110 224 300
f  301 302 303
f  160 159 288
f  162 304 249
f  291 52 152
f  134 51 107
f  149 305 150
f  226 149 253
f  149 39 253
f  270 41 271
f  270 39 41
f  150 134 84
f  179 306 307
f  308 164 62
f  188 36 189
f  36 188 37
f  309 222 159
f  165 161 310
f  311 313 247
f  313 311 312
f  210 65 314
f  168 167 169
f  315 317 77
f  317 315 316
f  7 115 236
f  115 168 236
f  77 318 315
f  77 317 78
f  122 120 119
f  120 122 121
f  262 238 239
f  319 244 320
f  321 320 322
f  323 324 312
f  75 325 326
f  95 300 155
f  9 219 109
f  19 327 328
f  314 329 330
f  331 308 62
f  332 333 1
f  334 335 267
f  336 263 251
f  263 336 337
f  252 1 333
f  1 252 251
f  128 338 129
f  184 254 33
f  339 341 342
f  341 339 340
f  343 345 340
f  345 343 344
f  340 345 272
f  346 261 347
f  125 144 126
f  348 349 350
f  348 350 351
f  352 125 261
f  353 354 355
f  69 264 356
f  332 44 43
f  44 332 1
f  307 306 357
f  358 359 334
f  69 356 360
f  356 347 361
f  191 17 93
f  363 194 362
f  194 363 25
f  364 58 365
f  366 26 25
f  26 366 367
f  368 193 195
f  60 200 142
f  365 58 369
f  97 108 94
f  370 30 274
f  371 95 372
f  222 221 373
f  298 90 89
f  374 129 257
f  292 287 286
f  280 285 281
f  375 207 206
f  276 376 277
f  377 378 379
f  377 380 378
f  137 136 381
f  21 383 382
f  383 21 23
f  291 330 52
f  90 217 218
f  20 234 105
f  145 290 203
f  384 385 293
f  293 104 31
f  83 82 100
f  82 301 386
f  8 386 9
f  196 10 213
f  195 197 278
f  367 387 388
f  387 367 366
f  274 30 205
f  22 287 294
f  297 389 30
f  390 153 154
f  384 390 385
f  389 31 30
f  368 195 278
f  296 295 297
f  298 282 90
f  298 181 282
f  288 289 217
f  181 288 217
f  212 288 181
f  180 212 181
f  33 254 299
f  34 309 158
f  391 392 393
f  94 110 394
f  110 300 394
f  304 311 247
f  247 395 248
f  395 247 313
f  51 132 107
f  40 84 27
f  40 27 41
f  41 27 29
f  254 271 299
f  374 257 396
f  72 223 220
f  65 329 314
f  313 397 102
f  325 398 399
f  27 230 28
f  400 106 57
f  308 307 164
f  107 391 56
f  164 357 63
f  401 267 269
f  185 161 165
f  402 403 404
f  61 157 223
f  103 405 406
f  289 65 209
f  323 407 324
f  81 80 408
f  409 117 241
f  410 317 316
f  317 410 117
f  411 76 166
f  76 411 77
f  77 411 318
f  407 412 324
f  413 414 415
f  240 120 171
f  416 413 417
f  236 189 418
f  319 241 244
f  419 321 420
f  320 421 322
f  422 423 424
f  321 319 320
f  425 419 242
f  424 419 425
f  326 325 426
f  330 53 52
f  117 410 237
f  427 429 430
f  429 427 428
f  396 180 182
f  431 225 226
f  431 226 432
f  341 340 272
f  45 255 433
f  428 396 434
f  184 33 35
f  4 266 5
f  47 131 265
f  130 348 351
f  348 130 46
f  258 435 259
f  263 69 68
f  436 437 264
f  47 4 135
f  438 135 80
f  126 79 238
f  79 126 48
f  144 48 126
f  48 144 46
f  262 126 238
f  261 125 124
f  3 186 187
f  3 2 186
f  250 439 251
f  439 336 251
f  70 359 440
f  3 187 178
f  255 3 50
f  178 187 179
f  335 361 441
f  442 334 267
f  392 179 443
f  307 357 164
f  437 445 264
f  445 437 444
f  354 352 355
f  352 354 446
f  176 262 239
f  360 356 361
f  283 21 382
f  447 448 449
f  363 450 25
f  381 363 362
f  363 381 136
f  279 201 200
f  59 278 279
f  111 364 451
f  364 111 58
f  297 30 370
f  396 204 180
f  278 97 98
f  278 197 97
f  279 98 201
f  98 94 201
f  201 371 202
f  96 95 371
f  234 452 235
f  285 89 281
f  281 89 207
f  453 277 376
f  277 453 454
f  378 284 455
f  379 455 456
f  455 379 378
f  280 207 375
f  290 291 152
f  290 152 151
f  154 18 20
f  20 457 234
f  20 19 457
f  215 390 384
f  90 290 145
f  203 290 151
f  205 83 99
f  458 459 368
f  301 233 386
f  32 460 82
f  82 461 301
f  461 302 301
f  457 452 234
f  97 213 108
f  197 213 97
f  82 386 8
f  386 233 9
f  213 9 109
f  10 9 213
f  368 278 112
f  111 368 112
f  16 292 21
f  15 292 16
f  292 15 206
f  216 215 287
f  207 214 208
f  297 293 389
f  293 31 389
f  384 293 295
f  287 215 384
f  154 105 104
f  105 235 462
f  22 296 136
f  22 294 296
f  458 192 459
f  30 32 205
f  285 298 89
f  396 182 434
f  212 160 288
f  158 309 159
f  309 220 222
f  271 227 299
f  299 227 34
f  394 300 95
f  94 394 95
f  463 402 404
f  231 56 464
f  271 71 227
f  271 41 71
f  465 466 431
f  227 220 228
f  227 72 220
f  467 325 75
f  313 102 101
f  416 417 468
f  312 397 313
f  395 313 101
f  469 402 463
f  443 179 307
f  306 470 357
f  393 392 308
f  39 84 40
f  39 150 84
f  418 189 471
f  176 239 173
f  412 273 324
f  472 273 88
f  187 70 440
f  187 440 179
f  289 473 65
f  403 425 404
f  217 209 210
f  217 289 209
f  474 107 106
f  412 408 273
f  48 438 80
f  135 7 475
f  245 171 476
f  477 78 319
f  415 78 477
f  78 317 409
f  317 117 409
f  423 478 419
f  420 321 322
f  419 420 242
f  424 423 419
f  421 245 479
f  421 479 398
f  406 405 469
f  480 468 402
f  428 434 429
f  455 284 280
f  481 378 380
f  378 481 284
f  482 343 340
f  483 345 344
f  345 483 45
f  50 3 178
f  345 45 484
f  483 485 45
f  204 35 211
f  204 211 180
f  259 46 144
f  46 259 348
f  13 259 144
f  48 47 438
f  438 47 135
f  356 346 347
f  1 251 2
f  2 68 70
f  50 178 177
f  50 177 132
f  347 260 486
f  335 441 267
f  70 69 359
f  359 69 360
f  346 352 261
f  347 261 260
f  446 125 352
f  125 446 487
f  13 487 11
f  487 13 125
f  264 445 356
f  449 448 488
f  458 368 448
f  136 450 363
f  296 297 450
f  383 23 138
f  199 143 489
f  369 141 198
f  141 369 58
f  58 60 141
f  490 428 491
f  428 490 374
f  491 428 427
f  201 96 371
f  201 94 96
f  95 156 372
f  473 66 65
f  52 327 19
f  327 52 54
f  19 328 457
f  140 190 492
f  14 190 140
f  190 14 17
f  454 375 206
f  454 280 375
f  90 218 290
f  218 210 290
f  152 19 18
f  19 152 52
f  462 235 460
f  31 105 462
f  235 452 493
f  235 493 302
f  235 302 461
f  100 82 8
f  100 8 196
f  59 279 200
f  59 200 60
f  458 447 494
f  447 458 448
f  387 192 458
f  366 192 387
f  136 296 450
f  99 196 193
f  193 196 195
f  287 384 295
f  287 295 294
f  91 203 214
f  207 91 214
f  31 462 460
f  31 460 32
f  214 390 215
f  390 214 203
f  203 153 390
f  153 203 151
f  274 205 99
f  25 450 366
f  159 222 373
f  159 473 289
f  211 158 160
f  211 34 158
f  228 220 309
f  34 228 309
f  56 393 464
f  220 223 229
f  310 161 163
f  253 39 270
f  253 270 254
f  495 432 184
f  495 431 432
f  496 495 497
f  495 496 431
f  465 431 496
f  498 416 468
f  468 417 422
f  401 269 161
f  260 262 486
f  470 442 357
f  162 249 163
f  249 247 246
f  249 304 247
f  330 329 53
f  243 74 73
f  358 334 442
f  63 357 185
f  132 177 392
f  177 179 392
f  84 134 474
f  134 107 474
f  175 173 172
f  414 76 499
f  414 499 415
f  397 324 500
f  324 273 472
f  471 189 414
f  501 418 87
f  172 174 311
f  304 172 311
f  291 314 330
f  210 314 291
f  55 107 56
f  56 391 393
f  84 106 85
f  84 474 106
f  36 76 414
f  80 135 502
f  88 87 498
f  503 501 273
f  475 7 236
f  475 236 501
f  79 48 80
f  408 503 273
f  241 240 245
f  240 171 245
f  415 477 423
f  413 415 423
f  78 409 319
f  409 241 319
f  504 425 243
f  404 425 504
f  423 477 478
f  477 319 478
f  467 322 325
f  320 244 421
f  244 245 421
f  402 468 403
f  425 242 243
f  457 328 452
f  301 303 233
f  428 374 396
f  127 129 505
f  434 298 285
f  430 284 481
f  284 430 429
f  485 42 45
f  44 3 255
f  44 1 3
f  434 182 298
f  257 204 396
f  349 259 435
f  349 435 506
f  259 349 348
f  355 352 346
f  251 68 2
f  251 263 68
f  272 133 305
f  272 484 133
f  441 176 175
f  441 175 172
f  306 440 470
f  179 440 306
f  359 360 334
f  440 359 358
f  486 262 176
f  486 176 441
f  124 126 262
f  261 124 262
f  445 346 356
f  444 346 445
f  346 444 507
f  455 280 454
f  456 454 453
f  454 456 455
f  277 15 14
f  460 461 82
f  460 235 461
f  112 278 59
f  58 112 59
f  508 458 494
f  458 508 387
f  388 387 508
f  448 368 111
f  488 111 451
f  111 488 448
f  450 370 366
f  450 297 370
f  192 193 459
f  459 193 368
f  21 286 22
f  21 292 286
f  292 216 287
f  390 154 385
f  385 154 293
f  65 67 329
f  432 226 254
f  432 254 184
f  339 482 340
f  341 466 342
f  466 341 431
f  173 323 174
f  323 173 407
f  312 324 397
f  500 88 509
f  509 510 405
f  268 172 269
f  269 172 304
f  373 221 511
f  185 512 161
f  357 512 185
f  442 267 512
f  357 442 512
f  443 307 308
f  392 443 308
f  407 408 412
f  239 407 173
f  407 239 81
f  472 88 500
f  324 472 500
f  417 413 423
f  510 468 480
f  393 308 464
f  464 308 331
f  107 132 391
f  391 132 392
f  300 156 155
f  224 156 300
f  219 156 224
f  232 156 219
f  233 156 232
f  303 156 233
f  302 156 303
f  493 156 302
f  452 156 493
f  328 156 452
f  327 156 328
f  54 156 327
f  53 156 54
f  329 156 53
f  67 156 329
f  66 156 67
f  511 156 66
f  221 156 511
f  229 156 221
f  223 156 229
f  157 156 223
f  28 156 157
f  230 156 28
f  116 156 230
f  400 156 116
f  57 156 400
f  231 156 57
f  464 156 231
f  331 156 464
f  62 156 331
f  64 156 62
f  165 156 64
f  310 156 165
f  163 156 310
f  246 156 163
f  248 156 246
f  395 156 248
f  101 156 395
f  103 156 101
f  406 156 103
f  469 156 406
f  463 156 469
f  404 156 463
f  504 156 404
f  243 156 504
f  73 156 243
f  75 156 73
f  326 156 75
f  156 326 426
f  471 414 413
f  189 36 414
f  87 471 513
f  513 471 413
f  502 135 475
f  408 80 503
f  245 476 479
f  478 321 419
f  478 319 321
f  242 420 74
f  74 467 75
f  514 421 398
f  514 398 325
f  403 422 425
f  422 424 425
f  256 184 183
f  256 183 204
f  257 256 204
f  148 338 146
f  338 148 129
f  284 434 285
f  429 434 284
f  515 264 263
f  264 515 436
f  433 255 50
f  433 50 49
f  149 272 305
f  272 345 484
f  334 361 335
f  360 361 334
f  470 358 442
f  440 358 470
f  373 511 66
f  454 206 15
f  277 454 15
f  366 274 192
f  366 370 274
f  341 272 225
f  341 225 431
f  174 312 311
f  312 174 323
f  509 88 510
f  88 498 510
f  516 405 103
f  500 509 405
f  161 269 162
f  269 304 162
f  267 441 268
f  268 441 172
f  512 267 401
f  512 401 161
f  80 502 503
f  502 475 503
f  397 500 516
f  516 500 405
f  417 423 422
f  468 422 403
f  159 373 473
f  373 66 473
f  116 106 400
f  499 76 78
f  499 78 415
f  87 513 498
f  418 471 87
f  74 322 467
f  420 322 74
f  495 147 497
f  147 495 148
f  148 495 184
f  517 374 490
f  505 374 517
f  374 505 129
f  518 346 507
f  346 518 355
f  518 353 355
f  337 515 263
f  484 45 433
f  305 133 150
f  361 347 486
f  361 486 441
f  480 402 469
f  510 498 468
f  405 480 469
f  405 510 480
f  81 408 407
f  503 475 501
f  501 236 418
f  102 516 103
f  102 397 516
f  513 413 416
f  498 513 416
f  322 421 514
f  322 514 325
f  129 148 256
f  148 184 256
f  484 433 133
f  133 433 49
f  86 501 87
f  273 501 86
f  325 399 426
f  520 199 489
f  520 198 199
f  520 369 198
f  520 365 369
f  520 364 365
f  520 451 364
f  520 488 451
f  520 449 488
f  520 447 449
f  520 494 447
f  520 508 494
f  520 388 508
f  520 367 388
f  520 26 367
f  520 24 26
f  520 194 24
f  520 362 194
f  520 381 362
f  520 137 381
f  520 138 137
f  520 383 138
f  520 382 383
f  520 283 382
f  520 92 283
f  520 93 92
f  520 191 93
f  520 190 191
f  519 190 520
f  190 519 492
f  521 519 520
f  519 521 522
f  122 521 123
f  119 521 122
f  118 521 119
f  237 521 118
f  410 521 237
f  316 521 410
f  315 521 316
f  318 521 315
f  411 521 318
f  166 521 411
f  38 521 166
f  37 521 38
f  188 521 37
f  170 521 188
f  169 521 170
f  167 521 169
f  114 521 167
f  113 521 114
f  6 521 113
f  5 521 6
f  266 521 5
f  265 521 266
f  131 521 265
f  130 521 131
f  351 521 130
f  350 521 351
f  349 521 350
f  522 349 506
f  349 522 521
f  143 520 489
f  275 520 142
f  520 143 142
f  202 520 275
f  121 521 171
f  521 121 123
f  371 520 202
f  521 476 171
f  372 520 371
f  521 479 476
f  156 520 372
f  521 398 479
f  520 156 521
f  521 399 398
f  426 521 156
f  521 426 399
f  435 522 506
f  258 522 435
f  522 258 519
f  519 140 492
f  139 519 258
f  519 139 140
f  487 258 12
f  258 487 139
f  487 12 11
f  453 139 487
f  139 453 276
f  276 453 376
f  446 453 487
f  446 456 453
f  354 456 446
f  354 379 456
f  437 354 353
f  354 437 379
f  507 353 518
f  437 353 507
f  427 379 437
f  377 481 380
f  437 507 444
f  379 427 377
f  377 427 481
f  481 427 430
f  436 427 437
f  436 491 427
f  515 491 436
f  515 490 491
f  337 490 515
f  337 517 490
f  336 517 337
f  336 505 517
f  250 336 439
f  336 250 505
f  332 505 250
f  505 128 127
f  332 250 252
f  505 332 128
f  332 252 333
f  147 128 332
f  128 147 338
f  338 147 146
f  42 332 43
f  332 42 147
f  496 147 42
f  147 496 497
f  485 496 42
f  485 465 496
f  483 465 485
f  483 466 465
f  343 483 344
f  483 343 466
f  339 466 343
f  466 339 342
f  339 343 482
